<?xml version="1.0" encoding="UTF-8" standalone="no"?>
<!-- Created with Inkscape (http://www.inkscape.org/) -->

<svg
   xmlns:dc="http://purl.org/dc/elements/1.1/"
   xmlns:cc="http://creativecommons.org/ns#"
   xmlns:rdf="http://www.w3.org/1999/02/22-rdf-syntax-ns#"
   xmlns:svg="http://www.w3.org/2000/svg"
   xmlns="http://www.w3.org/2000/svg"
   xmlns:sodipodi="http://sodipodi.sourceforge.net/DTD/sodipodi-0.dtd"
   xmlns:inkscape="http://www.inkscape.org/namespaces/inkscape"
   id="svg2985"
   version="1.1"
   inkscape:version="0.48.5 r10040"
   width="512"
   height="512"
   xml:space="preserve"
   sodipodi:docname="52bff114c8318c29e9000005.svg"><metadata
     id="metadata2991"><rdf:RDF><cc:Work
         rdf:about=""><dc:format>image/svg+xml</dc:format><dc:type
           rdf:resource="http://purl.org/dc/dcmitype/StillImage" /><dc:title></dc:title></cc:Work></rdf:RDF></metadata><defs
     id="defs2989"><clipPath
       clipPathUnits="userSpaceOnUse"
       id="clipPath3019"><path
         d="M 0,170 446,170 446,0 0,0 0,170 z"
         id="path3021"
         inkscape:connector-curvature="0" /></clipPath></defs><sodipodi:namedview
     pagecolor="#ffffff"
     bordercolor="#666666"
     borderopacity="1"
     objecttolerance="10"
     gridtolerance="10"
     guidetolerance="10"
     inkscape:pageopacity="0"
     inkscape:pageshadow="2"
     inkscape:window-width="1920"
     inkscape:window-height="1031"
     id="namedview2987"
     showgrid="false"
     inkscape:zoom="0.84472308"
     inkscape:cx="-329.2181"
     inkscape:cy="90.534313"
     inkscape:window-x="0"
     inkscape:window-y="0"
     inkscape:window-maximized="1"
     inkscape:current-layer="g2993" /><g
     id="g2993"
     inkscape:groupmode="layer"
     inkscape:label="dropbox-logos_dropbox-logotype-blue"
     transform="matrix(1.25,0,0,-1.25,0,512)"><g
       id="g3010"
       transform="translate(-2.645538,4.649445)"><g
         transform="matrix(3.4969026,0,0,3.4969026,134.94653,363.95351)"
         id="g2995"><path
           inkscape:connector-curvature="0"
           id="path2997"
           style="fill:#007ee5;fill-opacity:1;fill-rule:nonzero;stroke:none"
           d="M 0,0 -29.63,-19.346 -9.143,-35.752 20.732,-17.305 0,0 z" /></g><g
         transform="matrix(3.4969026,0,0,3.4969026,31.333655,181.55963)"
         id="g2999"><path
           inkscape:connector-curvature="0"
           id="path3001"
           style="fill:#007ee5;fill-opacity:1;fill-rule:nonzero;stroke:none"
           d="M 0,0 29.63,-19.346 50.362,-2.04 20.487,16.407 0,0 z" /></g><g
         transform="matrix(3.4969026,0,0,3.4969026,207.44571,174.42594)"
         id="g3003"><path
           inkscape:connector-curvature="0"
           id="path3005"
           style="fill:#007ee5;fill-opacity:1;fill-rule:nonzero;stroke:none"
           d="M 0,0 20.733,-17.306 50.362,2.04 29.875,18.447 0,0 z" /></g><g
         transform="matrix(3.4969026,0,0,3.4969026,383.55777,296.30349)"
         id="g3007"><path
           inkscape:connector-curvature="0"
           id="path3009"
           style="fill:#007ee5;fill-opacity:1;fill-rule:nonzero;stroke:none"
           d="M 0,0 -29.629,19.346 -50.362,2.041 -20.487,-16.406 0,0 z" /></g><g
         transform="matrix(3.4969026,0,0,3.4969026,207.65763,161.40627)"
         id="g3011"><path
           inkscape:connector-curvature="0"
           id="path3013"
           style="fill:#007ee5;fill-opacity:1;fill-rule:nonzero;stroke:none"
           d="m 0,0 -20.793,-17.254 -8.897,5.809 0,-6.513 29.69,-17.805 29.691,17.805 0,6.513 -8.896,-5.809 L 0,0 z" /></g></g></g></svg>