<?xml version="1.0" encoding="utf-8"?>
<!-- Generator: Adobe Illustrator 15.0.0, SVG Export Plug-In . SVG Version: 6.00 Build 0)  -->
<!DOCTYPE svg PUBLIC "-//W3C//DTD SVG 1.1//EN" "http://www.w3.org/Graphics/SVG/1.1/DTD/svg11.dtd">
<svg version="1.1" id="pencil" xmlns="http://www.w3.org/2000/svg" xmlns:xlink="http://www.w3.org/1999/xlink" x="0px" y="0px"
	 width="85px" height="85px" viewBox="0 0 85 85" enable-background="new 0 0 85 85" xml:space="preserve">
<path display="none" fill="#F2B6E0" d="M29.593,20.696c0,0-1.438-8.813,0-10.706c4.563-6.005,21.25-6.005,25.813,0
	c1.438,1.893,0,10.706,0,10.706l-0.739,5H30.334L29.593,20.696z"/>
<path display="none" fill="#E5B55E" d="M55.359,33.47v22.99l0.039,0.013L42.521,59.71l-12.919-3.25v-23v-3.47V25.1h25.757v4.67
	V33.47L55.359,33.47z"/>
<polygon display="none" fill="#EABB78" points="36.046,25.1 36.046,56.46 36.026,56.471 29.597,59.71 29.597,25.1 "/>
<polygon display="none" fill="#D6A456" points="55.355,25.1 55.355,59.71 48.927,56.471 48.907,56.46 48.907,25.1 "/>
<rect x="29.593" y="20.696" display="none" fill="#A3A3A3" width="25.813" height="4.408"/>
<rect x="29.593" y="20.696" display="none" fill="#A0A0A0" width="6.457" height="4.404"/>
<rect x="48.904" y="20.696" display="none" fill="#A0A0A0" width="6.455" height="4.404"/>
<polygon display="none" fill="#F9F7E1" points="55.41,59.71 42.515,77.25 29.62,59.7 36.05,56.46 42.512,59.71 48.93,56.471 
	48.95,56.46 55.359,59.68 55.38,59.7 "/>
<polygon display="none" fill="#EDE9DF" points="55.41,59.71 45.21,75.359 43.66,75.359 48.95,56.46 "/>
<polygon display="none" fill="#FFFBEE" points="41.34,75.359 39.79,75.359 29.59,59.71 36.05,56.46 "/>
<polygon display="none" fill="#4D5051" points="45.21,75.359 42.5,79.51 39.79,75.359 "/>
<path display="none" fill="#FFFFFF" d="M53.023,29.275c0,4.31-1.722,5.67-3.58,5.73c-2.82,0.11-5.98-2.74-4-2.74
	c1.369,0,2.779-0.43,4-0.96C51.482,30.435,53.023,29.275,53.023,29.275z"/>
<line display="none" opacity="0.11" fill="none" stroke="#000000" stroke-width="0.25" stroke-miterlimit="10" enable-background="new    " x1="29.593" y1="22.203" x2="55.406" y2="22.203"/>
<line display="none" opacity="0.11" fill="none" stroke="#000000" stroke-width="0.25" stroke-miterlimit="10" enable-background="new    " x1="29.593" y1="23.714" x2="55.406" y2="23.714"/>
<path display="none" fill="#FFFFFF" d="M36.074,34.995c-0.26,0.03-0.52,0.03-0.78-0.01c-0.19-0.01-0.38-0.05-0.57-0.1
	c-0.49-0.13-0.95-0.38-1.34-0.78c-0.28-0.28-0.53-0.63-0.74-1.07c-0.42-0.88-0.67-2.1-0.67-3.76c0,0,0.01,0,0.02,0.02
	c0.01,0.01,0.03,0.02,0.06,0.04c0.06,0.04,0.17,0.12,0.31,0.22c0.08,0.05,0.18,0.12,0.28,0.19c0.73,0.48,1.99,1.23,3.43,1.78
	c1.1,0.43,2.31,0.74,3.47,0.74C41.404,32.265,38.734,34.785,36.074,34.995z"/>
<polygon display="none" fill="#F4F2ED" points="70,37.66 62.62,35.66 58.12,35.05 56.04,34.92 55.41,44.53 44.82,48.03 42.5,48.03 
	42.5,48.04 40.16,48.04 29.57,44.54 28.94,34.92 26.86,35.05 22.36,35.66 14.98,37.66 23.36,28.53 28.94,25.01 27.48,9.78 
	40.16,4.16 42.48,4.17 42.48,4.16 44.82,4.16 57.5,9.78 56.04,25.01 61.62,28.53 "/>
<polygon display="none" fill="#E2E0DC" points="29.083,27.1 30.576,30.275 31.576,42.5 31.576,45.199 29.567,44.535 28.937,34.924 
	22.357,35.665 14.977,37.665 24.833,29 "/>
<polygon display="none" fill="#E2E0DC" points="55.893,27.114 54.396,30.287 53.384,42.511 53.381,45.21 55.391,44.549 
	56.03,34.938 62.609,35.686 69.988,37.693 60.141,29.018 "/>
<polyline display="none" fill="#AC3231" points="29.018,36.149 31.974,36.75 34.167,34.386 36.074,34.995 31.974,39.75 
	29.205,39.008 "/>
<path display="none" fill="#AC3231" d="M32.025,29.308c0,0-2.045,5.407,2.592,6.112c4.636,0.705,5.171-4.859,3.566-6.134
	C36.578,28.012,34.604,26.77,32.025,29.308z"/>
<path display="none" fill="#00B8F1" d="M32.725,29.295c0,0-1.911,5.054,2.422,5.713s4.833-4.542,3.333-5.733
	S35.136,26.923,32.725,29.295z"/>
<path display="none" fill="#06D0FF" d="M33.375,29.781c0,0-1.489,3.936,1.886,4.449c3.375,0.514,3.765-3.537,2.597-4.465
	C36.689,28.837,35.253,27.933,33.375,29.781z"/>
<polygon display="none" fill="#AC3231" points="47.583,19.583 51.726,12 42.5,9.5 33.306,11.917 34.05,19.696 41.157,25.1 
	41.164,37.917 41.157,48.035 43.842,48.035 43.842,37.917 43.842,24.1 36.164,19.25 36.046,13.167 42.499,12.083 48.25,13.083 
	45.784,17.917 41.34,18 40.75,16.583 42.111,15.818 43.66,16.417 44.824,16 42.515,14.583 40.164,14.883 39.002,16.591 
	39.75,19.167 43.66,19.667 "/>
<polygon display="none" fill="#E2E0DC" points="28.937,25.014 30.5,26.1 27.477,9.784 "/>
<polyline display="none" fill="#AC3231" points="55.936,36.149 52.979,36.75 50.787,34.386 48.879,34.995 52.979,39.75 
	55.748,39.008 "/>
<path display="none" fill="#AC3231" d="M52.928,29.308c0,0,2.045,5.407-2.592,6.112c-4.635,0.706-5.171-4.859-3.566-6.133
	C48.375,28.012,50.349,26.77,52.928,29.308z"/>
<path display="none" fill="#00B8F1" d="M52.229,29.294c0,0,1.91,5.054-2.423,5.713c-4.333,0.66-4.833-4.541-3.333-5.732
	S49.816,26.922,52.229,29.294z"/>
<path display="none" fill="#06D0FF" d="M51.578,29.78c0,0,1.488,3.936-1.887,4.449c-3.375,0.514-3.764-3.536-2.596-4.464
	C48.264,28.837,49.7,27.933,51.578,29.78z"/>
<polygon display="none" fill="#E2E0DC" points="55.985,25.014 54.422,26.099 57.444,9.784 "/>
<path fill="#2B609A" d="M61.24,27.25v4l-1.11,1.25l-0.09,2.08l-3.07,3.09h-3.91c0,0-1.77,4.55-4.199,3.65
	c-1.86-0.7-3.98-0.86-6.2-0.88l-0.16,0.02l-0.16-0.02c-2.22,0.02-4.34,0.18-6.2,0.88c-2.43,0.9-4.2-3.65-4.2-3.65h-3.91l-3.07-3.09
	l-0.09-2.08l-1.11-1.25v-4l1.54-1.55c0,0,1.02-7.95,1.37-12.03c0.34-4.09,3.79-6.89,6.14-7.75c2.34-0.87,3.07-2.58,9.69-2.58
	s7.35,1.71,9.69,2.58c2.35,0.86,5.8,3.66,6.14,7.75c0.35,4.08,1.37,12.03,1.37,12.03L61.24,27.25z"/>
<path fill="#1B426F" d="M35.706,30.391c-0.283,0.034-0.566,0.034-0.849-0.011c-0.209-0.012-0.415-0.059-0.622-0.116
	c-0.535-0.15-1.037-0.439-1.46-0.901c-0.307-0.323-0.579-0.728-0.807-1.236c-0.458-1.018-0.73-2.427-0.73-4.346
	c0,0,0.011,0,0.021,0.023c0.01,0.011,0.032,0.023,0.066,0.046c0.063,0.045,0.185,0.139,0.336,0.254
	c0.087,0.058,0.198,0.138,0.306,0.219c0.796,0.555,2.169,1.422,3.738,2.058c1.199,0.497,2.519,0.855,3.783,0.855
	C41.516,27.236,38.605,30.148,35.706,30.391z"/>
<path fill="#B8331D" d="M36.075,29.995c-0.26,0.03-0.52,0.03-0.78-0.01c-0.19-0.01-0.38-0.05-0.569-0.1
	c-0.49-0.13-0.951-0.38-1.341-0.78c-0.28-0.28-0.53-0.63-0.739-1.07c-0.42-0.88-0.67-2.1-0.67-3.76c0,0,0.01,0,0.02,0.02
	c0.01,0.01,0.029,0.02,0.061,0.04c0.059,0.04,0.17,0.12,0.309,0.22c0.08,0.05,0.181,0.12,0.281,0.19
	c0.729,0.48,1.989,1.23,3.43,1.78c1.1,0.43,2.31,0.74,3.47,0.74C41.405,27.265,38.735,29.785,36.075,29.995z"/>
<path fill="#012347" d="M33.56,37.67c0.22-0.97,0.8-2,1.59-2.99v5.9C33.07,40.52,33.56,37.67,33.56,37.67z"/>
<path fill="#012347" d="M36.94,32.84c0.46-0.41,0.95-0.79,1.44-1.12v7.79c-0.34,0.12-0.67,0.25-0.98,0.41
	c-0.16,0.08-0.32,0.15-0.46,0.21V32.84z"/>
<path fill="#012347" d="M40.16,30.68c0.5-0.24,0.99-0.42,1.45-0.52v8.61c-0.4,0.05-0.91,0.13-1.45,0.25V30.68z"/>
<path fill="#1B426F" d="M28.954,31.507l2.797-1c0,0-2.13-3.409-1-7.254l-1.797-1.5C28.954,21.752,27.907,27.678,28.954,31.507z"/>
<g>
	<path fill="#154784" d="M28.954,21.752c1.177,0.832,2.251,1.788,3.406,2.626c1.154,0.809,2.333,1.704,3.657,2.015
		c1.398,0.302,2.796,0.584,4.211,0.776c1.411,0.219,2.835,0.328,4.272,0.424c-1.434,0.126-2.882,0.109-4.32-0.023
		c-1.435-0.15-2.863-0.383-4.267-0.703c-0.749-0.178-1.402-0.536-2.022-0.918c-0.62-0.386-1.202-0.82-1.755-1.285
		C31.012,23.757,30.006,22.726,28.954,21.752z"/>
</g>
<path fill="#1B426F" d="M30.415,23.119c0.011,0.012,0.034,0.025,0.072,0.051c0.069,0.05,0.202,0.153,0.368,0.28"/>
<g>
	<path fill="#2B609A" d="M32.545,34.417L32.545,34.417c0-2.583-4.546,0.591-4.546,0.591l-2.876-2.443l3.96-1.058
		C29.083,31.507,32.795,32,32.545,34.417z"/>
	<path fill="#1B426F" d="M32.485,34.892l0.007-0.472c0.007-0.459-0.226-0.919-0.703-0.935c-0.442-0.042-0.894,0.104-1.318,0.267
		c-0.852,0.343-1.654,0.821-2.413,1.34l-0.065,0.044l-0.061-0.05c-0.963-0.809-1.938-1.604-2.883-2.434l-0.165-0.145l0.209-0.054
		l3.969-1.026l0.018-0.004l0.014,0.002c0.831,0.146,1.647,0.401,2.358,0.865c0.347,0.239,0.666,0.536,0.869,0.909
		c0.209,0.37,0.276,0.804,0.224,1.217L32.485,34.892z M32.51,33.91c-0.041-0.24-0.11-0.475-0.24-0.68
		c-0.214-0.352-0.535-0.625-0.882-0.84c-0.699-0.429-1.509-0.676-2.316-0.802l0.032-0.002l-3.951,1.09l0.045-0.198
		c0.972,0.798,1.914,1.632,2.868,2.452l-0.125-0.006c0.782-0.516,1.594-0.984,2.472-1.323c0.439-0.158,0.903-0.307,1.394-0.254
		c0.241,0.023,0.496,0.147,0.628,0.368C32.473,33.774,32.487,33.844,32.51,33.91z"/>
</g>
<polygon fill="#1B426F" points="27.999,35.008 28.03,37.67 24.96,34.58 24.87,32.5 "/>
<path fill="#012347" d="M31.859,34.062c0,0-2.823,0.264-3.281,1.875c-0.418,1.469,2.457,1.33,2.66,1.298
	S30.047,36.125,31.859,34.062z"/>
<g>
	<path fill="#2B609A" d="M25.851,32.371c0,0,0.42-6.548-0.551-6.67"/>
	<path fill="#1B426F" d="M25.727,32.363c0.086-1.133,0.142-2.272,0.149-3.411c0.002-0.569-0.008-1.139-0.055-1.706
		c-0.023-0.284-0.057-0.566-0.116-0.844c-0.07-0.256-0.12-0.603-0.405-0.702c0.291,0.09,0.355,0.44,0.435,0.695
		c0.07,0.278,0.115,0.561,0.148,0.845c0.067,0.568,0.099,1.139,0.118,1.71c0.035,1.143,0.021,2.285-0.025,3.428L25.727,32.363z"/>
</g>
<path fill="#012347" d="M23.562,31.281c-0.25-0.204-0.111-3.756-0.111-3.756s0.283-0.51,0.486-0.291s0.069,4.206,0,4.172
	S23.734,31.422,23.562,31.281z"/>
<path fill="#295A91" d="M31.76,34.087c-1.255,0.085-2.432,0.843-2.354,1.921c0.079,1.09,1.221,1.537,2.534,1.662
	c1.361,0.129,2.008-1.589,1.951-2.35C33.781,33.859,31.76,34.087,31.76,34.087z"/>
<path fill="#274572" d="M43.39,30.16v8.61c-0.83-0.09-0.89-0.13-0.89-0.13l0.02-8.62C42.83,30.02,43.03,30.06,43.39,30.16z"/>
<path fill="#274572" d="M42.48,30.02l0.02,8.62c0,0-0.06,0.04-0.89,0.13v-8.61C41.97,30.06,42.17,30.02,42.48,30.02z"/>
<path fill="#274572" d="M40.16,30.68v8.34c-0.57,0.12-1.19,0.28-1.78,0.49v-7.79C38.97,31.31,39.57,30.96,40.16,30.68z"/>
<path fill="#274572" d="M36.94,32.84v7.29c-0.75,0.33-1.34,0.46-1.79,0.45v-5.9C35.67,34.04,36.28,33.41,36.94,32.84z"/>
<path fill="none" stroke="#27558A" stroke-width="0.25" stroke-miterlimit="10" d="M42.5,38.645c-0.41,0.03-3.109,0.275-5.1,1.275
	c-4.62,2.32-3.84-2.25-3.84-2.25c0.77-3.42,5.956-7.654,8.917-7.646"/>
<g>
	<path fill="#012347" d="M39.409,39.934c0.492-0.204,0.998-0.347,1.51-0.472c0.518-0.126,1.017-0.224,1.593-0.241
		c0.56,0.029,1.068,0.136,1.58,0.272c0.508,0.135,1.012,0.288,1.5,0.502c-0.533-0.011-1.053-0.069-1.57-0.124
		c-0.516-0.045-1.038-0.137-1.523-0.15c-0.469,0.002-1.004,0.084-1.517,0.119C40.462,39.885,39.941,39.933,39.409,39.934z"/>
</g>
<path fill="#2B609A" d="M49.3,5.55H35.7c0,0-0.18-1.52,0.37-2.07c1.2-1.2,6.43-1.06,6.43-1.06s5.23-0.14,6.43,1.06
	C49.48,4.03,49.3,5.55,49.3,5.55z"/>
<path fill="#012347" d="M48.06,5c-0.72,0.29-5.56,0.08-5.56,0.08S37.66,5.29,36.94,5c-0.32-0.13-0.46-0.37-0.23-0.63
	c0.93-1.04,5.79-1.03,5.79-1.03s4.86-0.01,5.79,1.03C48.51,4.63,48.38,4.87,48.06,5z"/>
<path fill="#1B426F" d="M45.51,27.236c1.265,0,2.585-0.358,3.783-0.855c1.569-0.636,2.942-1.503,3.738-2.058
	c0.108-0.081,0.22-0.162,0.306-0.219c0.152-0.115,0.273-0.208,0.337-0.254c0.034-0.023,0.056-0.035,0.065-0.046
	c0.012-0.023,0.021-0.023,0.021-0.023c0,1.918-0.271,3.328-0.729,4.346c-0.228,0.508-0.501,0.913-0.808,1.236
	c-0.423,0.462-0.926,0.751-1.46,0.901c-0.206,0.058-0.413,0.104-0.622,0.116c-0.283,0.045-0.565,0.045-0.849,0.011
	C46.394,30.148,43.483,27.236,45.51,27.236z"/>
<path fill="#B8331D" d="M45.454,27.265c1.16,0,2.371-0.31,3.471-0.74c1.439-0.55,2.699-1.3,3.43-1.78
	c0.1-0.07,0.201-0.14,0.281-0.19c0.139-0.1,0.25-0.18,0.309-0.22c0.031-0.02,0.051-0.03,0.061-0.04c0.01-0.02,0.02-0.02,0.02-0.02
	c0,1.66-0.25,2.88-0.67,3.76c-0.209,0.44-0.459,0.79-0.74,1.07c-0.389,0.4-0.85,0.65-1.34,0.78c-0.189,0.05-0.379,0.09-0.57,0.1
	c-0.26,0.04-0.52,0.04-0.779,0.01C46.265,29.785,43.595,27.265,45.454,27.265z"/>
<path fill="#012347" d="M51.438,37.67c-0.219-0.97-0.799-2-1.59-2.99v5.9C51.929,40.52,51.438,37.67,51.438,37.67z"/>
<path fill="#012347" d="M48.06,32.84c-0.461-0.41-0.951-0.79-1.44-1.12v7.79c0.34,0.12,0.67,0.25,0.979,0.41
	c0.16,0.08,0.32,0.15,0.461,0.21V32.84z"/>
<path fill="#012347" d="M44.839,30.68c-0.5-0.24-0.99-0.42-1.449-0.52v8.61c0.399,0.05,0.909,0.13,1.449,0.25V30.68z"/>
<path fill="#1B426F" d="M56.046,31.507l-2.797-1c0,0,2.13-3.409,1-7.254l1.797-1.5C56.046,21.752,57.093,27.678,56.046,31.507z"/>
<g>
	<path fill="#154784" d="M40.499,27.594c1.437-0.079,2.861-0.192,4.274-0.403c1.41-0.224,2.817-0.465,4.208-0.797
		c1.312-0.341,2.509-1.196,3.645-2.032c1.16-0.831,2.231-1.791,3.42-2.609c-1.042,0.987-2.05,2.014-3.17,2.93
		c-0.558,0.459-1.146,0.885-1.763,1.277c-0.619,0.38-1.272,0.753-2.026,0.909c-1.411,0.289-2.831,0.563-4.271,0.682
		C43.38,27.69,41.932,27.703,40.499,27.594z"/>
</g>
<path fill="#1B426F" d="M54.144,23.45c0.167-0.127,0.299-0.23,0.369-0.28c0.037-0.026,0.061-0.039,0.071-0.051"/>
<g>
	<path fill="#2B609A" d="M52.454,34.417L52.454,34.417c0-2.583,4.546,0.591,4.546,0.591l2.876-2.443l-3.96-1.058
		C55.916,31.507,52.204,32,52.454,34.417z"/>
	<path fill="#1B426F" d="M52.489,33.91c0.022-0.065,0.037-0.136,0.075-0.195c0.133-0.221,0.387-0.345,0.629-0.368
		c0.491-0.053,0.954,0.096,1.394,0.254c0.878,0.339,1.69,0.807,2.472,1.323l-0.125,0.006c0.954-0.819,1.896-1.653,2.868-2.452
		l0.045,0.198l-3.951-1.09l0.031,0.002c-0.808,0.125-1.617,0.373-2.316,0.802c-0.347,0.215-0.668,0.488-0.882,0.84
		C52.6,33.435,52.529,33.669,52.489,33.91z M52.454,34.417c-0.052-0.413,0.015-0.847,0.224-1.217
		c0.204-0.373,0.522-0.67,0.869-0.909c0.711-0.464,1.527-0.719,2.358-0.865l0.015-0.002l0.018,0.004l3.968,1.026l0.21,0.054
		l-0.165,0.145c-0.945,0.83-1.92,1.625-2.884,2.434l-0.06,0.05l-0.065-0.044c-0.759-0.519-1.562-0.997-2.413-1.34
		c-0.424-0.162-0.876-0.309-1.317-0.267c-0.478,0.015-0.711,0.475-0.704,0.935l0.008,0.472L52.454,34.417z"/>
</g>
<polygon fill="#1B426F" points="57,35.008 56.97,37.67 60.039,34.58 60.129,32.5 "/>
<path fill="#012347" d="M53.14,34.062c0,0,2.822,0.264,3.281,1.875c0.418,1.469-2.457,1.33-2.66,1.298S54.952,36.125,53.14,34.062z"
	/>
<g>
	<path fill="#2B609A" d="M59.147,32.371c0,0-0.42-6.548,0.552-6.67"/>
	<path fill="#1B426F" d="M59.022,32.378c-0.045-1.144-0.059-2.286-0.024-3.428c0.019-0.571,0.051-1.142,0.118-1.71
		c0.033-0.284,0.078-0.567,0.147-0.845c0.08-0.255,0.145-0.604,0.436-0.695c-0.284,0.1-0.334,0.446-0.405,0.702
		c-0.059,0.278-0.093,0.561-0.116,0.844c-0.046,0.567-0.057,1.136-0.055,1.706c0.007,1.138,0.062,2.277,0.149,3.411L59.022,32.378z"
		/>
</g>
<path fill="#012347" d="M61.437,31.281c0.25-0.204,0.111-3.756,0.111-3.756s-0.283-0.51-0.486-0.291s-0.069,4.206,0,4.172
	S61.265,31.422,61.437,31.281z"/>
<path fill="#295A91" d="M53.239,34.087c1.255,0.085,2.432,0.843,2.354,1.921c-0.079,1.09-1.221,1.537-2.533,1.662
	c-1.361,0.129-2.008-1.589-1.951-2.35C51.218,33.859,53.239,34.087,53.239,34.087z"/>
<path fill="#274572" d="M44.839,30.68v8.34c0.57,0.12,1.189,0.28,1.78,0.49v-7.79C46.028,31.31,45.429,30.96,44.839,30.68z"/>
<path fill="#274572" d="M48.06,32.84v7.29c0.75,0.33,1.34,0.46,1.789,0.45v-5.9C49.329,34.04,48.72,33.41,48.06,32.84z"/>
<path fill="none" stroke="#27558A" stroke-width="0.25" stroke-miterlimit="10" d="M42.499,38.645c0.41,0.03,3.109,0.275,5.1,1.275
	c4.621,2.32,3.84-2.25,3.84-2.25c-0.77-3.42-5.955-7.654-8.917-7.646"/>
<g>
	<path fill="#012347" d="M45.59,39.934c-0.532-0.001-1.053-0.049-1.572-0.095c-0.513-0.035-1.048-0.117-1.517-0.119
		c-0.485,0.014-1.007,0.105-1.523,0.15c-0.518,0.055-1.038,0.113-1.57,0.124c0.488-0.214,0.991-0.367,1.5-0.502
		c0.512-0.135,1.02-0.243,1.58-0.272c0.576,0.017,1.074,0.115,1.593,0.241C44.592,39.587,45.098,39.73,45.59,39.934z"/>
</g>
</svg>
