<?xml version="1.0" encoding="utf-8"?>
<!-- Generator: Adobe Illustrator 15.0.0, SVG Export Plug-In . SVG Version: 6.00 Build 0)  -->
<!DOCTYPE svg PUBLIC "-//W3C//DTD SVG 1.1//EN" "http://www.w3.org/Graphics/SVG/1.1/DTD/svg11.dtd">
<svg version="1.1" xmlns="http://www.w3.org/2000/svg" xmlns:xlink="http://www.w3.org/1999/xlink" x="0px" y="0px" width="85px"
	 height="85px" viewBox="0 0 85 85" enable-background="new 0 0 85 85" xml:space="preserve">
<g id="pencil" display="none">
	<path display="inline" fill="#F2B6E0" d="M29.593,20.696c0,0-1.438-8.813,0-10.706c4.563-6.005,21.25-6.005,25.813,0
		c1.438,1.893,0,10.706,0,10.706l-0.739,5H30.334L29.593,20.696z"/>
	<path display="inline" fill="#E5B55E" d="M55.359,33.47v22.99l0.039,0.013L42.521,59.71l-12.919-3.25v-23v-3.47V25.1h25.757v4.67
		V33.47L55.359,33.47z"/>
	<polygon display="inline" fill="#EABB78" points="36.046,25.1 36.046,56.46 36.026,56.471 29.597,59.71 29.597,25.1 	"/>
	<polygon display="inline" fill="#D6A456" points="55.355,25.1 55.355,59.71 48.927,56.471 48.907,56.46 48.907,25.1 	"/>
	<rect x="29.593" y="20.696" display="inline" fill="#A3A3A3" width="25.813" height="4.408"/>
	<rect x="29.593" y="20.696" display="inline" fill="#A0A0A0" width="6.457" height="4.404"/>
	<rect x="48.904" y="20.696" display="inline" fill="#A0A0A0" width="6.455" height="4.404"/>
	<polygon display="inline" fill="#F9F7E1" points="55.41,59.71 42.515,77.25 29.62,59.7 36.05,56.46 42.512,59.71 48.93,56.471 
		48.95,56.46 55.359,59.68 55.38,59.7 	"/>
	<polygon display="inline" fill="#EDE9DF" points="55.41,59.71 45.21,75.359 43.66,75.359 48.95,56.46 	"/>
	<polygon display="inline" fill="#FFFBEE" points="41.34,75.359 39.79,75.359 29.59,59.71 36.05,56.46 	"/>
	<polygon display="inline" fill="#4D5051" points="45.21,75.359 42.5,79.51 39.79,75.359 	"/>
	<path display="inline" fill="#FFFFFF" d="M53.023,29.275c0,4.31-1.722,5.67-3.58,5.73c-2.82,0.11-5.98-2.74-4-2.74
		c1.369,0,2.779-0.43,4-0.96C51.482,30.435,53.023,29.275,53.023,29.275z"/>
	
		<line display="inline" opacity="0.11" fill="none" stroke="#000000" stroke-width="0.25" stroke-miterlimit="10" enable-background="new    " x1="29.593" y1="22.203" x2="55.406" y2="22.203"/>
	
		<line display="inline" opacity="0.11" fill="none" stroke="#000000" stroke-width="0.25" stroke-miterlimit="10" enable-background="new    " x1="29.593" y1="23.714" x2="55.406" y2="23.714"/>
	<path display="inline" fill="#FFFFFF" d="M36.074,34.995c-0.26,0.03-0.52,0.03-0.78-0.01c-0.19-0.01-0.38-0.05-0.57-0.1
		c-0.49-0.13-0.95-0.38-1.34-0.78c-0.28-0.28-0.53-0.63-0.74-1.07c-0.42-0.88-0.67-2.1-0.67-3.76c0,0,0.01,0,0.02,0.02
		c0.01,0.01,0.03,0.02,0.06,0.04c0.06,0.04,0.17,0.12,0.31,0.22c0.08,0.05,0.18,0.12,0.28,0.19c0.73,0.48,1.99,1.23,3.43,1.78
		c1.1,0.43,2.31,0.74,3.47,0.74C41.404,32.265,38.734,34.785,36.074,34.995z"/>
</g>
<g id="Layer_4" display="none">
	<path display="inline" fill="#001416" d="M30.917,29.275c0,0,6.649-1.901,8.083-1.94c2-0.055,4.84,8.07-4.042,8.083
		C28.954,35.427,30.917,29.275,30.917,29.275z"/>
	<path display="inline" fill="#001416" d="M39,27.334c0,0,9.552-2.777,16.359-6.639l0.051,1.055l-15.247,6.354"/>
	<polyline display="inline" fill="#001416" points="30.917,29.275 29.59,28.834 29.602,29.99 30.701,30.255 	"/>
	<path display="inline" fill="#432C1C" d="M43.895,19.731c0,0,0.451-2.777,2.874-3.214c0.551-0.101,0.587-0.66,1.07-1.359
		c0.524-0.757,2.787-3.461,2.787-3.461s0.153,1.407,0.128,1.91c-0.026,0.499-0.324,2.008-0.324,2.008s0.776-1.666,1.085-2.108
		c0.328-0.467,1.42-1.438,1.42-1.438s-0.139,2.304-0.247,3.17c-0.069,0.552-0.217,2.195-0.217,2.195s1.105-1.267,1.479-1.665
		c0.433-0.462,1.746-1.762,1.746-1.762s-0.274,2.3-0.486,3.018c-0.121,0.416-0.67,1.485-0.67,1.485s0.791-0.53,1.052-0.57
		c0.444-0.066,2.365-0.105,1.99,0.227c-1.317,1.167-2.149,3.48-2.149,3.48"/>
	<path display="inline" fill="#3B2514" d="M38.574,23.045c0,0-1.471-4.016,0.179-5.635c0.416-0.408,0.022-2.253,0.022-2.253
		l-0.696-2.83c0,0,1.168,0.83,1.519,1.189c0.349,0.357,1.227,1.611,1.227,1.611s0.04-1.585,0.015-2.097
		c-0.039-0.779,0.025-2.731,0.025-2.731s1.51,1.88,1.941,2.548c0.298,0.462,0.934,1.139,0.934,1.139s0,0-0.003-0.239
		c-0.01-0.783,1.088-2.913,1.088-2.913s0.659,1.8,1.068,2.478c0.312,0.512,0.692,1.451,0.692,1.451s0.988-1.898,1.167-2.012
		c0,0,1.783,5.417,0.25,6.917"/>
	<path display="inline" fill="#3F2818" d="M43.053,20.188c0,0-1.579-3.83-3.949-3.979c-0.599-0.038-1.542-1.622-1.542-1.622
		L36.186,12.1c0,0-0.34,1.329-0.369,1.808c-0.028,0.477,0.143,1.932,0.143,1.932s-1.104-1.125-1.43-1.513
		c-0.498-0.59-1.868-1.967-1.868-1.967s0.106,2.304,0.225,3.058c0.083,0.521,0.496,2.015,0.496,2.015s-0.447-0.607-0.607-0.783
		c-0.521-0.574-2.186-2.034-2.186-2.034s0.083,2.313,0.226,3.06c0.107,0.565,0.3,1.06,0.3,1.06s-0.339-0.058-0.505-0.189
		c-0.53-0.424-2.691-0.379-2.691-0.379l1.546,3.077"/>
	<path display="inline" fill="#00375D" d="M29.593,20.696c-1.024,0.404-0.991,3.086,0,4.404s25.292-0.068,25.767,0
		s1.775-3.543,0-4.404S39.583,16.751,29.593,20.696z"/>
	<path display="inline" fill="#3A220D" d="M29.593,25.1c0,0-2.032,1.067-2.199,3.005c-0.042,0.49-0.893,1.169-0.893,1.169
		l-1.333,0.98c0,0,0.671,0.36,0.917,0.413c0.245,0.052,1,0,1,0s-0.621,0.839-0.833,1.083c-0.324,0.374-1.084,1.417-1.084,1.417
		s1.191,0.052,1.583,0c0.271-0.036,1.056-0.285,1.056-0.285s-0.33,0.331-0.427,0.452c-0.315,0.394-1.129,1.673-1.129,1.673
		s1.194,0.071,1.583,0c0.294-0.054,1.12-0.423,1.12-0.423s-0.333,0.303-0.407,0.432C28.309,35.427,28,36.834,28,36.834l1.62-0.5"/>
	<path display="inline" fill="#3A220D" d="M55.383,25.1c0,0,1.383,0.004,1.785,2.234c0.092,0.508,0.539,1.148,0.916,1.5
		c0.408,0.381,1.725,1.421,1.725,1.421s-0.671,0.36-0.917,0.413c-0.244,0.052-1,0-1,0S58.761,31.15,59,31.376
		c0.252,0.238,0.809,1.125,0.809,1.125s-1.129,0.221-1.558,0.25c-0.273,0.019-1.082,0.131-1.082,0.131s0.701,0.854,0.924,1.147
		c0.258,0.339,0.991,1.388,0.991,1.388s-1.138,0.09-1.502,0c-0.212-0.053-0.773-0.41-0.773-0.41s0.318,0.669,0.358,0.91
		c0.067,0.412-0.333,0.917-0.333,0.917l-1.479-0.5"/>
</g>
<g id="Layer_5" display="none">
	<rect display="inline" fill="none" width="85" height="85"/>
	<path display="inline" fill="#3A4899" d="M42.5,36.71l0.02,5.79v5.81h-6.45l-2.03-3.392L31.125,42.5l-2.875-2.19v-4.37l-1.69-1.19
		V29.5l2.39-1.5l0.33-1.48l0.31-1.42l6.1,1.79c0.02,0.01,0.03,0.01,0.05,0.02L36.05,27c0.07,0.01,0.19,0.02,0.33,0.03l0.33,0.03
		l5.67,0.49c0.07,0.01,0.11,0.01,0.14,0.01l-0.02,2.19c0,0-3.31-0.25-4.12,0c-0.82,0.25-1.82,0.37-1.82,0.37s-1.87,0.06-2.25-0.37
		c-0.52-0.6-0.05-1.46-2.34-2.17c-2.28-0.7-2.38-0.04-2.38-0.04s-1.22,3,0.63,6.22c0.01,0.02,0.02,0.03,0.03,0.05
		c1,2.13,2.13,4.5,5.63,5.94c1.32,0.54,2.24-2.75,3.68-3.04H42.5z"/>
	<path display="inline" fill="#363D4D" d="M42.52,42.5v6.81l-0.02-4.75c-4.19,0-6.43,3.75-6.43,3.75
		c-2.757-3.185-2.03-5.435-2.03-5.435l-2.066-1.524L31.97,39.31L30.23,36c0,0-0.19-2.46-0.01-2.24c0.01,0.02,0.02,0.03,0.03,0.05
		c1,2.13,2.13,4.5,5.63,5.94c1.32,0.54,2.24-2.75,3.68-3.04h2.94L42.52,42.5z"/>
	<path display="inline" fill="#454C5E" d="M36.869,39.492c0,0,0.537,0.645,1.372,0.633c0.502-0.007,1.035-1.688,1.665-1.875
		c0.659-0.196,1.188-0.281,2.594-0.281v-1.188l-3.204,0.017L36.869,39.492z"/>
	<path display="inline" fill="#8E2020" stroke="#8E2020" stroke-width="0.25" stroke-miterlimit="10" d="M42.5,36.71h-2.94
		c-1.44,0.29-2.36,3.58-3.68,3.04c-3.5-1.44-4.63-3.81-5.63-5.94c-0.01-0.02-0.02-0.03-0.03-0.05c-1.85-3.22-0.63-6.22-0.63-6.22
		s0.1-0.66,2.38,0.04c2.29,0.71,1.82,1.57,2.34,2.17c0.38,0.43,2.25,0.37,2.25,0.37s1-0.12,1.82-0.37c0.81-0.25,4.12,0,4.12,0"/>
	<path display="inline" fill="#C9432D" stroke="#96301B" stroke-width="0.5" stroke-miterlimit="10" d="M42.5,31.687"/>
	<path display="inline" fill="#C9432D" stroke="#96301B" stroke-width="0.5" stroke-miterlimit="10" d="M42.5,34.375"/>
	<path display="inline" fill="#C9432D" stroke="#96301B" stroke-width="0.5" stroke-miterlimit="10" d="M42.5,31.687
		c-3.938-0.062-7.139-0.219-10.938-1.312c-2.171-0.625-1.942,2.014-0.438,2.688c0.228,0.102,2.915,1.312,11.375,1.312"/>
	<path display="inline" fill="#2C282C" d="M29.964,35.875c0.313,1.004,1.298,2.949,2.068,3.667c0.498,0.464,2.031,1.458,2.281,1.271
		s0.716-1.432,0.362-1.644s-1.511-0.856-2.451-2.018c0,0-1.445-2.2-2.003-3.392S29.805,35.367,29.964,35.875z"/>
	<path display="inline" fill="#2C282C" d="M42.52,49.31l-0.15-0.02c-0.92-0.09-5.88-0.6-6.3-0.98c0,0,2.24-3.75,6.43-3.75
		L42.52,49.31z"/>
	<path display="inline" fill="#2C282C" d="M28.25,35.94c0,0-1.259-1.563-1.438-2.194c-0.212-0.751,0.093-3.121,0.093-3.121
		s1.154-0.522,1.345-0.875c0.172-0.317,0-1.44,0-1.44s-2.049,0.76-2.188,1.393c-0.31,1.419-0.188,4.043,0,5.25
		C26.155,35.545,28.25,35.94,28.25,35.94z"/>
	<polygon display="inline" fill="#2C282C" points="28.25,39.81 28.25,41.75 35.049,46.935 34.054,44.56 	"/>
	<path display="inline" fill="#2C282C" d="M34.896,40.88c0.055,0.188,1.153,0.733,1.153,0.733l0.061-0.216l-1.12-0.683
		C34.99,40.714,34.88,40.825,34.896,40.88z"/>
	<path display="inline" fill="#2C282C" d="M35.05,40.291c0.055,0.188,1.152,0.733,1.152,0.733l0.062-0.216l-1.12-0.683
		C35.144,40.125,35.034,40.236,35.05,40.291z"/>
	<rect x="0.02" display="inline" fill="none" width="85" height="85"/>
	<path display="inline" fill="#3A4899" d="M42.52,36.71L42.5,42.5v5.81h6.449l2.03-3.392l2.915-2.418l2.875-2.19v-4.37l1.689-1.19
		V29.5l-2.39-1.5l-0.329-1.48L55.43,25.1l-6.1,1.79c-0.021,0.01-0.031,0.01-0.051,0.02L48.97,27c-0.07,0.01-0.19,0.02-0.33,0.03
		l-0.33,0.03l-5.67,0.49c-0.07,0.01-0.11,0.01-0.14,0.01l0.02,2.19c0,0,3.311-0.25,4.12,0c0.819,0.25,1.819,0.37,1.819,0.37
		s1.871,0.06,2.25-0.37c0.521-0.6,0.051-1.46,2.34-2.17c2.281-0.7,2.381-0.04,2.381-0.04s1.22,3-0.631,6.22
		c-0.01,0.02-0.02,0.03-0.029,0.05c-1,2.13-2.13,4.5-5.63,5.94c-1.32,0.54-2.24-2.75-3.681-3.04H42.52z"/>
	<path display="inline" fill="#363D4D" d="M42.5,42.5v6.81l0.02-4.75c4.189,0,6.43,3.75,6.43,3.75
		c2.758-3.185,2.03-5.435,2.03-5.435l2.065-1.524l0.004-2.041l1.74-3.31c0,0,0.19-2.46,0.01-2.24c-0.01,0.02-0.02,0.03-0.029,0.05
		c-1,2.13-2.13,4.5-5.63,5.94c-1.32,0.54-2.24-2.75-3.681-3.04H42.52L42.5,42.5z"/>
	<path display="inline" fill="#454C5E" d="M48.15,39.492c0,0-0.537,0.645-1.372,0.633c-0.503-0.007-1.034-1.688-1.665-1.875
		c-0.659-0.196-1.188-0.281-2.594-0.281v-1.188l3.204,0.017L48.15,39.492z"/>
	<path display="inline" fill="#8E2020" stroke="#8E2020" stroke-width="0.25" stroke-miterlimit="10" d="M42.52,36.71h2.939
		c1.44,0.29,2.36,3.58,3.681,3.04c3.5-1.44,4.63-3.81,5.63-5.94c0.01-0.02,0.02-0.03,0.029-0.05c1.851-3.22,0.631-6.22,0.631-6.22
		s-0.1-0.66-2.381,0.04c-2.289,0.71-1.819,1.57-2.34,2.17c-0.379,0.43-2.25,0.37-2.25,0.37s-1-0.12-1.819-0.37
		c-0.81-0.25-4.12,0-4.12,0"/>
	<path display="inline" fill="#363D4D" d="M55.74,26.52c-0.08,0.56-0.311,1.02-0.311,1.02s-0.1-0.66-2.38,0.04
		c-2.29,0.71-1.819,1.57-2.34,2.17c-0.38,0.43-2.57,0.63-2.57,0.63s-0.68-0.38-1.5-0.63c-0.81-0.25-4.12,0-4.12,0l-0.01-1.09
		l-0.01,1.09c0,0-3.31-0.25-4.12,0c-0.82,0.25-1.5,0.63-1.5,0.63s-2.19-0.2-2.57-0.63c-0.52-0.6-0.05-1.46-2.34-2.17
		c-2.28-0.7-2.38-0.04-2.38-0.04s-0.23-0.46-0.31-1.02c-0.08-0.48-0.05-1.03,0.31-1.42c0.99-1.04,4.75,1.25,6.1,1.79
		c0.02,0.01,0.03,0.01,0.05,0.02c0.13,0.05,0.24,0.08,0.31,0.09c0.07,0.01,0.19,0.02,0.33,0.03c0.1,0.01,0.21,0.02,0.33,0.03
		c1.52,0.14,4.9,0.45,5.67,0.49c0.06,0.01,0.09,0.01,0.12,0.01c0.01,0,0.01,0,0.02,0c0.03,0,0.06,0,0.12-0.01
		c0.77-0.04,4.15-0.35,5.669-0.49c0.12-0.01,0.23-0.02,0.33-0.03c0.141-0.01,0.261-0.02,0.33-0.03c0.07-0.01,0.181-0.04,0.311-0.09
		c0.02-0.01,0.029-0.01,0.05-0.02c1.35-0.54,5.11-2.83,6.1-1.79C55.79,25.49,55.82,26.04,55.74,26.52z"/>
	<path display="inline" fill="#C9432D" stroke="#96301B" stroke-width="0.5" stroke-miterlimit="10" d="M42.52,31.687"/>
	<path display="inline" fill="#C9432D" stroke="#96301B" stroke-width="0.5" stroke-miterlimit="10" d="M42.52,34.375"/>
	<path display="inline" fill="#C9432D" stroke="#96301B" stroke-width="0.5" stroke-miterlimit="10" d="M42.52,31.687
		c3.938-0.062,7.139-0.219,10.938-1.312c2.172-0.625,1.942,2.014,0.438,2.688c-0.229,0.102-2.915,1.312-11.375,1.312"/>
	<path display="inline" fill="#2C282C" d="M55.056,35.875c-0.313,1.004-1.298,2.949-2.067,3.667
		c-0.498,0.464-2.031,1.458-2.281,1.271s-0.717-1.432-0.361-1.644c0.354-0.212,1.511-0.856,2.45-2.018c0,0,1.445-2.2,2.003-3.392
		C55.357,32.568,55.215,35.367,55.056,35.875z"/>
	<path display="inline" fill="#2C282C" d="M42.5,49.31l0.149-0.02c0.92-0.09,5.88-0.6,6.3-0.98c0,0-2.24-3.75-6.43-3.75L42.5,49.31z
		"/>
	<path display="inline" fill="#2C282C" d="M56.77,35.94c0,0,1.26-1.563,1.438-2.194c0.213-0.751-0.093-3.121-0.093-3.121
		s-1.153-0.522-1.345-0.875c-0.172-0.317,0-1.44,0-1.44s2.049,0.76,2.188,1.393c0.311,1.419,0.188,4.043,0,5.25
		C58.865,35.545,56.77,35.94,56.77,35.94z"/>
	<polygon display="inline" fill="#2C282C" points="56.77,39.81 56.77,41.75 49.971,46.935 50.966,44.56 	"/>
	<path display="inline" fill="#2C282C" d="M50.123,40.88c-0.055,0.188-1.152,0.733-1.152,0.733l-0.062-0.216l1.12-0.683
		C50.029,40.714,50.14,40.825,50.123,40.88z"/>
	<path display="inline" fill="#2C282C" d="M49.969,40.291c-0.055,0.188-1.152,0.733-1.152,0.733l-0.061-0.216l1.119-0.683
		C49.875,40.125,49.986,40.236,49.969,40.291z"/>
	<path display="inline" d="M42.5,41.75c0,0-1.948,0.125-2.562,0.279c-0.83,0.207-2.218,2.103-3.068,2.256
		c-0.708,0.128-2.902-0.188-2.902-0.188s2.165,0.531,2.902,0.464c0.911-0.083,2.424-1.99,3.294-2.207
		c0.556-0.138,2.336-0.14,2.336-0.14"/>
	<path display="inline" d="M42.521,41.75c0,0,1.949,0.125,2.562,0.279c0.83,0.207,2.218,2.103,3.068,2.256
		c0.708,0.128,2.902-0.188,2.902-0.188s-2.166,0.531-2.902,0.464c-0.911-0.083-2.424-1.99-3.295-2.207
		c-0.555-0.138-2.336-0.14-2.336-0.14"/>
	<path display="inline" fill="#C5CCCD" d="M43.887,20.696c0,0,0.451-4.822,2.875-5.259c0.551-0.101,0.586-0.66,1.07-1.359
		c0.523-0.757,4.574-2.171,4.574-2.171s-0.249,1.435-0.274,1.938c-0.025,0.499-1.71,0.69-1.71,0.69s-1.515-0.034,1.422-1.378
		c0.519-0.237,2.75,0.125,2.75,0.125s-0.609,0.728-0.719,1.594c-0.068,0.552-1.412,1.478-1.412,1.478s0.975-1.457,1.48-1.665
		c0.838-0.345,2.963,0.53,2.963,0.53s-0.75,0.372-1.5,0.812c-0.373,0.219-0.873,1.398-0.873,1.398s0.791-0.53,1.051-0.57
		c0.445-0.066,2.365-0.105,1.99,0.227c-1.316,1.167-2.168,3.609-2.168,3.609"/>
	<path display="inline" fill="#C5CCCD" d="M38.208,20.696c0,0-1.112-2.747,0.537-4.367c0.416-0.408-0.621-2.204-0.621-2.204
		l-1.312-2.875c0,0,2.427,0.826,2.778,1.185c0.349,0.357,1.227,1.611,1.227,1.611s-1.229-0.94-1.254-1.452
		c-0.039-0.779-1.781-2.406-1.781-2.406s4.892,0.581,5.324,1.249c0.297,0.462,0.627,1.468,0.627,1.468s-0.604-0.916-0.607-1.155
		c-0.01-0.783-0.406-2.344-0.406-2.344s3.172,2.957,3.58,3.634c0.312,0.512,0.279,0.641,0.279,0.641s0.275-2.349,0.453-2.462
		c0,0,4.033,7.968,2.5,9.469"/>
	<path display="inline" fill="#C5CCCD" d="M42.719,20.719c0,0-1.252-5.441-3.623-5.59c-0.598-0.038-0.877-1.878-1.534-2.16
		c-0.8-0.343-3.312-1.062-3.312-1.062s0.806,2.266,1.125,2.625c0.64,0.719,0.577,0.228,0.577,0.228s-0.965-1.312-1.43-1.513
		c-1.045-0.454-2.928-0.684-2.928-0.684s0.933,3.101,1.5,3.75c0.347,0.397,0.282,0.04,0.282,0.04s-1.193-1.041-1.401-1.155
		c-1.443-0.791-2.372-0.322-2.372-0.322s0.848,0.917,1.171,1.6c0.246,0.52,0.335,1.18,0.335,1.18s-0.339-0.058-0.506-0.189
		c-0.529-0.424-2.352-0.298-2.352-0.298l1.343,3.528"/>
</g>
<g id="Layer_6" display="none">
	<rect display="inline" fill="none" width="85" height="85"/>
	<path display="inline" fill="#7D7B84" d="M52.485,17.13c-1.611-1.477-1.446-2.145-1.757-4.694c-0.649-5.33,4.522-5.726,4.742-7.684
		C55.667,3,53.845,3.666,53.75,5l-3.416-0.959c0,0,0.092-1.916,2.12-3.087c0.938-0.542,3.612-1.329,5.296,0.921
		c3.106,4.151-4.099,12.281-3.415,14.141"/>
	<path display="inline" fill="#7D7B84" d="M52.957,28.092c-0.468-2.706-0.793-4.013,1.041-6.758
		c3.836-5.741,5.945-9.871,6.667-12.252c0.834-2.75-1.265-2.569-2.5-1.333l-2.099-3c0,0,0.166-0.109,0.445-0.271
		c0.438-0.255,1.153-0.643,1.94-0.958C59.183,3.229,59.976,3,60.667,3c1.417,0,4.083,0.521,4.083,4.938
		c0,6.501-8.018,18.143-8.867,20.503"/>
	<g display="inline">
		<path fill="#6A6971" d="M56.486,4.436c0.634-0.348,1.289-0.659,1.965-0.915c-0.663,0.287-1.301,0.626-1.916,1.001L56.486,4.436z"
			/>
	</g>
	<path display="inline" fill="#91929D" d="M49.673,4.674c0,0,0.374-1.589,0.728-1.731c0.604-0.242,3.475,0.432,3.926,1.267
		c0,0,0.084,0.791-0.357,1.899L49.673,4.674z"/>
	<path display="inline" fill="#91929D" d="M54.438,5.084c0,0,1.461-0.824,1.854-0.711c0.671,0.193,2.309,2.127,2.291,3.116
		c-0.01,0.562-1.078,1.23-1.892,2.054L54.438,5.084z"/>
	<path display="inline" fill="#91929D" d="M61.273,30.285c-0.055,1.319-0.223,2.179-0.479,2.228
		c-0.095,0.016-0.198-0.074-0.298-0.278l-0.13-0.316l-0.091-0.266l-0.446-1.172c0.085,0.181,0.164,0.32,0.247,0.402
		c0.074,0.098,0.149,0.131,0.223,0.123c0.258-0.041,0.426-0.68,0.48-1.671c0.049-0.803,0.019-1.843-0.09-2.966
		c-0.113-1.122-0.292-2.138-0.494-2.908c-0.223-0.852-0.484-1.409-0.728-1.458c-0.02-0.008-0.044-0.008-0.064-0.008
		c-0.073,0.008-0.143,0.074-0.202,0.188l0.248-0.835c0,0,0.301-0.827,0.449-0.86c0.258-0.058,0.544,0.712,0.791,1.958
		c0.203,1.024,0.382,2.384,0.495,3.883C61.293,27.828,61.323,29.212,61.273,30.285z"/>
	<path display="inline" fill="#7D7B84" d="M59.497,33.669"/>
	<path display="inline" fill="#7D7B84" d="M59.232,32.979"/>
	<path display="inline" fill="#91929D" d="M63.187,29.114c-0.039,0.401-0.093,0.753-0.168,1.016l-0.231,0.516l-0.396,0.876
		c0.045-0.238,0.084-0.524,0.109-0.852c0.094-1.138,0.084-2.785-0.05-4.604c-0.123-1.671-0.331-3.17-0.568-4.227
		c-0.089-0.426-0.188-0.786-0.287-1.049l0.703,0.942l0.078,0.106c0.169,0.246,0.326,0.721,0.465,1.352
		c0.173,0.787,0.307,1.819,0.376,2.957C63.281,27.279,63.266,28.319,63.187,29.114z"/>
	<path display="inline" fill="#6A6971" d="M62.5,30.67c-0.025,0.328-0.064,0.614-0.109,0.852c-0.083,0.442-0.192,0.705-0.331,0.729
		l-1.266,0.262c0.257-0.049,0.425-0.909,0.479-2.228c0.05-1.073,0.02-2.458-0.089-3.957c-0.113-1.499-0.292-2.859-0.495-3.883
		c-0.247-1.245-0.533-2.015-0.791-1.958l1.271-0.27c0.135-0.025,0.282,0.18,0.426,0.573c0.099,0.263,0.198,0.623,0.287,1.049
		c0.237,1.057,0.445,2.556,0.568,4.227C62.584,27.885,62.594,29.532,62.5,30.67z"/>
	<path display="inline" fill="#91929D" d="M60.076,30.883c-0.083-0.082-0.162-0.221-0.247-0.402l-0.138-0.352
		c-0.277-0.794-0.535-2.064-0.673-3.498c-0.203-2.048-0.124-3.826,0.173-4.424l0.01-0.024c0.06-0.115,0.129-0.181,0.202-0.188
		c0.021,0,0.045,0,0.064,0.008c-0.099,1.139-0.094,2.818,0.046,4.669C59.636,28.335,59.839,29.827,60.076,30.883z"/>
	<path display="inline" fill="#6A6971" d="M60.779,29.335c-0.055,0.991-0.223,1.63-0.48,1.671c-0.073,0.008-0.148-0.024-0.223-0.123
		c-0.237-1.057-0.44-2.548-0.562-4.211c-0.14-1.851-0.145-3.53-0.046-4.669c0.243,0.049,0.505,0.606,0.728,1.458
		c0.202,0.77,0.381,1.786,0.494,2.908C60.798,27.492,60.828,28.532,60.779,29.335z"/>
	<line display="inline" fill="none" x1="59.04" y1="20.75" x2="59.02" y2="20.78"/>
	<line display="inline" fill="none" x1="58.963" y1="30.45" x2="59.188" y2="30.88"/>
	<path display="inline" fill="#91929D" d="M57.96,30.42c0,0,1.264-1.092,2.116-1.505c0.5-0.242,0.123-4.808-0.33-4.808
		s-3.235,0.338-4.334,3.325C54.312,30.419,57.607,32.171,57.96,30.42z"/>
	<g display="inline">
		<path fill="#7D7B84" d="M25.622,19.357c-0.476,0.329-0.82,1.364-0.988,2.079c1.608,0.208,3.21-0.619,4.762,0.149
			c0.177-0.648,0.911-1.376,0.551-1.897C28.973,18.278,26.848,18.51,25.622,19.357z"/>
		<path fill="#6A6971" d="M25.622,19.357c-0.312,0.242-0.48,0.613-0.63,0.967c-0.145,0.361-0.255,0.736-0.342,1.116l-0.014-0.021
			c0.8,0.098,1.598-0.062,2.396-0.152c0.792-0.097,1.645-0.099,2.385,0.274l-0.069,0.031c0.163-0.563,0.61-1.001,0.659-1.558
			c0.008-0.271-0.229-0.494-0.419-0.684c-0.204-0.19-0.447-0.345-0.712-0.442c-0.525-0.213-1.116-0.23-1.674-0.144
			C26.64,18.834,26.097,19.042,25.622,19.357z M25.622,19.357c0.471-0.322,1.013-0.539,1.576-0.638
			c0.56-0.095,1.156-0.087,1.695,0.123c0.272,0.096,0.522,0.249,0.737,0.443c0.112,0.096,0.206,0.204,0.292,0.317
			c0.098,0.108,0.163,0.261,0.159,0.412c-0.049,0.607-0.496,1.046-0.638,1.583l-0.016,0.059l-0.054-0.027
			c-0.713-0.364-1.543-0.382-2.335-0.294c-0.795,0.079-1.601,0.228-2.407,0.118l-0.019-0.002l0.004-0.018
			c0.092-0.379,0.208-0.753,0.358-1.114C25.131,19.964,25.306,19.595,25.622,19.357z"/>
	</g>
	<g display="inline">
		<path fill="#7D7B84" d="M24.455,20.241l-0.368,1.553c1.882-0.698,3.464-0.485,5.449-0.51
			C30.341,19.578,25.916,19.416,24.455,20.241z"/>
		<path fill="#6A6971" d="M24.455,20.241l-0.345,1.558l-0.031-0.027c0.861-0.33,1.783-0.486,2.702-0.524
			c0.92-0.039,1.839-0.003,2.755-0.012l-0.042,0.027c0.104-0.219,0.137-0.484,0.003-0.689c-0.124-0.209-0.347-0.346-0.574-0.447
			c-0.463-0.199-0.973-0.281-1.478-0.318c-0.507-0.037-1.018-0.021-1.523,0.039C25.419,19.907,24.91,20.007,24.455,20.241z
			 M24.455,20.241c0.448-0.248,0.958-0.364,1.462-0.439c0.507-0.071,1.021-0.088,1.533-0.058c0.51,0.033,1.025,0.109,1.505,0.31
			c0.235,0.103,0.474,0.241,0.617,0.475c0.155,0.232,0.119,0.542,0.008,0.775l-0.013,0.027l-0.03,0
			c-0.92,0.019-1.838-0.04-2.753-0.006c-0.915,0.028-1.828,0.176-2.688,0.491l-0.042,0.015l0.011-0.042L24.455,20.241z"/>
	</g>
	<g display="inline">
		<path fill="#7D7B84" d="M23.651,22.011c0,0,0.08,2.134,0.191,3.047c1.778-0.84,3.627-1.734,5.572-1.909
			c-0.076-0.845,0.696-1.515,0.105-1.859C27.926,20.36,24.795,20.442,23.651,22.011z"/>
		<path fill="#6A6971" d="M23.651,22.011c0.05,1.016,0.096,2.035,0.209,3.044l-0.025-0.014c1.771-0.844,3.58-1.749,5.575-1.941
			l-0.044,0.053c-0.028-0.364,0.094-0.709,0.217-1.031c0.058-0.162,0.122-0.326,0.12-0.487c0.003-0.168-0.129-0.281-0.281-0.357
			c-0.605-0.33-1.295-0.488-1.983-0.546c-0.689-0.054-1.392-0.001-2.059,0.187C24.718,21.108,24.07,21.448,23.651,22.011z
			 M23.651,22.011c0.413-0.568,1.059-0.917,1.721-1.116c0.669-0.197,1.374-0.258,2.069-0.212c0.694,0.051,1.392,0.201,2.014,0.531
			c0.151,0.069,0.33,0.216,0.325,0.417c0.004,0.188-0.063,0.356-0.119,0.521c-0.12,0.324-0.229,0.656-0.199,0.993l0.004,0.048
			l-0.048,0.004c-1.97,0.179-3.789,1.049-5.568,1.876l-0.023,0.011l-0.002-0.024C23.723,24.045,23.69,23.028,23.651,22.011z"/>
	</g>
	<g display="inline">
		<path fill="#7D7B84" d="M23.4,24.558c0,0,0.676,2.584,0.9,3.446c1.37-1.354,2.56-2.197,4.363-2.222
			c0.085-0.83,1.206-2.449,0.558-3.074C27.801,21.338,24.289,22.666,23.4,24.558z"/>
		<path fill="#6A6971" d="M23.4,24.558l0.918,3.441l-0.032-0.009c0.595-0.59,1.222-1.164,1.955-1.588
			c0.728-0.43,1.574-0.656,2.42-0.666l-0.045,0.041c0.141-0.854,0.657-1.566,0.757-2.394c0.021-0.201,0.002-0.416-0.116-0.576
			c-0.126-0.15-0.301-0.282-0.481-0.373c-0.368-0.189-0.789-0.263-1.204-0.261c-0.835,0.006-1.658,0.268-2.392,0.666
			C24.454,23.24,23.774,23.799,23.4,24.558z M23.4,24.558c0.366-0.763,1.042-1.332,1.768-1.743c0.733-0.407,1.557-0.68,2.404-0.696
			c0.421-0.006,0.852,0.063,1.235,0.255c0.193,0.098,0.365,0.221,0.51,0.389c0.137,0.182,0.157,0.417,0.137,0.627
			c-0.1,0.856-0.6,1.589-0.746,2.396l-0.008,0.042h-0.038c-0.833,0.001-1.665,0.213-2.39,0.631c-0.729,0.411-1.36,0.975-1.96,1.559
			L24.29,28.04l-0.008-0.032L23.4,24.558z"/>
	</g>
	<g display="inline">
		<path fill="#7D7B84" d="M23.651,27.235l2.095,2.884l3.271-3.124c0,0,1.134-2.176,0.338-2.455
			C27.088,23.744,23.931,25.148,23.651,27.235z"/>
		<path fill="#6A6971" d="M23.651,27.235l2.111,2.872l-0.03-0.003l3.254-3.142l-0.009,0.012c0.18-0.359,0.334-0.734,0.461-1.115
			c0.107-0.371,0.249-0.805,0.075-1.145c-0.094-0.156-0.326-0.179-0.511-0.239c-0.193-0.051-0.393-0.083-0.592-0.105
			c-0.4-0.041-0.806-0.03-1.205,0.03c-0.797,0.116-1.573,0.413-2.234,0.878C24.319,25.74,23.765,26.42,23.651,27.235z
			 M23.651,27.235c0.104-0.816,0.653-1.507,1.305-1.979c0.66-0.475,1.438-0.783,2.242-0.91c0.402-0.065,0.812-0.081,1.22-0.044
			c0.203,0.019,0.405,0.05,0.604,0.1c0.186,0.062,0.421,0.067,0.561,0.267c0.206,0.406,0.048,0.835-0.052,1.219
			c-0.122,0.391-0.288,0.764-0.473,1.128l-0.003,0.006l-0.005,0.005l-3.289,3.105l-0.017,0.016L25.73,30.13L23.651,27.235z"/>
	</g>
	<path display="inline" fill="#7D7B84" d="M27.357,9.364c0.361-1.99,1.562-3.172,3.225-4.28c2.012-1.342,4.566-1.931,6.907-1.324
		C38.13,3.927,41.34,4.75,42.5,5l0.016,39.75c0,0-5.901,0.459-7.446,0c-1.229-0.364-2.252-3.118-3.095-4.083
		c-1.445-1.655-3.556-4.281-4.475-6.276c-0.391-0.849-1.823-3.738-1.583-4.641c0.248-0.937,3.705-3.333,3.705-3.333L28.954,22.9
		c0,0,0.453-4.128,0.295-4.899c-0.208-1.022-0.595-1.509-0.996-2.407"/>
	<path display="inline" fill="#6A6971" d="M29.793,27.156c0.892,1.135,3.808,0.925,5.029,0.521c1.057-0.35,2.804-1.251,4.36-2.764
		c1.07-1.042,1.478-2.157,0.494-3.746c-2.733-4.413-4.597-6.783-6.733-6.833c-0.675-0.016-1.87,0.842-2.366,1.251
		c-0.701,0.579-1.385,3.868-1.385,3.868l-0.054,3.303C29.137,22.756,29.172,26.364,29.793,27.156z"/>
	<path display="inline" fill="#E0B54B" d="M29.62,26.417c0.906,0.908,3.871,0.739,5.112,0.417c1.074-0.279,2.85-1,4.431-2.209
		c1.089-0.833,1.502-1.725,0.502-2.995c-2.778-3.528-4.672-5.422-6.844-5.462c-0.687-0.013-1.901,0.673-2.406,1
		c-0.712,0.462-1.408,3.092-1.408,3.092l-0.054,2.64C28.954,22.9,28.988,25.784,29.62,26.417z"/>
	<g display="inline">
		<path fill="#54545A" d="M42.5,45.25c0,0-1.22-0.03-2.34-0.13c0,0-1.375-0.872-1.745-1.119c-0.862-0.577-1.774-1.904-2-2.917
			c-0.349-1.563,0.694-6.074,0.694-6.074c0.61-2.93,1.31-5.89,1.64-6.43c0.67-1.08,3.77-1.16,3.77-1.16"/>
		<path fill="#474747" d="M42.5,45.25c-0.781-0.008-1.563-0.032-2.344-0.084l-0.011-0.001l-0.01-0.006l-1.198-0.74
			c-0.392-0.25-0.812-0.493-1.142-0.843c-0.661-0.68-1.203-1.492-1.461-2.425c-0.188-0.96-0.047-1.904,0.054-2.838
			c0.12-0.935,0.282-1.862,0.486-2.781c0.406-1.832,0.801-3.669,1.297-5.482c0.129-0.453,0.252-0.905,0.438-1.348
			c0.205-0.47,0.692-0.708,1.125-0.863c0.902-0.3,1.848-0.391,2.784-0.419c-0.933,0.064-1.875,0.194-2.745,0.523
			c-0.419,0.176-0.865,0.394-1.036,0.815c-0.172,0.425-0.292,0.883-0.413,1.333c-0.47,1.813-0.84,3.653-1.221,5.49
			c-0.18,0.918-0.357,1.837-0.491,2.762c-0.115,0.918-0.26,1.871-0.095,2.764c0.229,0.883,0.751,1.697,1.384,2.363
			c0.314,0.342,0.712,0.58,1.106,0.838l1.175,0.773l-0.02-0.007C40.94,45.157,41.72,45.212,42.5,45.25z"/>
	</g>
	<path display="inline" fill="#74727B" d="M40.16,39.85v5.27c-0.05,0-0.1-0.01-0.15-0.01c-0.77-0.08-2.131-1.523-2.261-1.693
		c-0.34-0.42-1.153-1.663-1.333-2.333c0,0,0.206-3.576,0.418-4.749c0.27-1.493,1.621-5.849,1.621-5.849l1.415,4.534L40.16,39.85z"/>
	<path display="inline" fill="#7D7B84" d="M42.5,27.704c0,0-3.168-0.179-3.668,1.571s-1.949,5.495-1.5,7.059
		c0.441,1.534,3.668,4.75,5.168,4.75L42.5,27.704z"/>
	<path display="inline" fill="#7D7B84" d="M40.16,45.12v0.13l-0.15-0.14C40.06,45.11,40.11,45.12,40.16,45.12z"/>
	
		<ellipse transform="matrix(0.9484 0.3171 -0.3171 0.9484 14.6305 -10.1095)" display="inline" fill="#45454B" cx="38.372" cy="39.891" rx="0.905" ry="0.639"/>
	
		<ellipse transform="matrix(0.9625 0.2714 -0.2714 0.9625 12.7857 -8.7903)" display="inline" fill="#45454B" cx="38.179" cy="41.839" rx="0.997" ry="0.677"/>
	<path display="inline" fill="#F6DF85" d="M29.57,26.349c0.837,0.839,3.577,0.683,4.724,0.385c0.992-0.258,2.632-0.924,4.094-2.042
		c1.005-0.77,1.388-1.594,0.464-2.768c-2.567-3.259-4.318-5.01-6.324-5.046c-0.634-0.012-1.757,0.622-2.223,0.924
		c-0.659,0.427-1.301,2.858-1.301,2.858l-0.051,2.438C28.954,23.099,28.986,25.764,29.57,26.349z"/>
	<path display="inline" fill="#91929D" d="M27.815,35.016c0,0,2.877-4.334,4.159-3.766c0.324,0.144,0,1.417,0,1.417l1.41,1.438
		c0,0,1.042-0.791,1.269-0.489c1.104,1.468-2.679,7.052-2.679,7.052C30.421,39.891,27.857,36.77,27.815,35.016z"/>
	<rect x="0.02" display="inline" fill="none" width="85" height="85"/>
	<path display="inline" fill="#7D7B84" d="M42.511,27.419l-0.007,17.332c0,0,5.902,0.459,7.447,0
		c1.229-0.364,2.252-3.118,3.094-4.083c1.445-1.655,3.557-4.281,4.476-6.276c0.392-0.849,1.823-3.738,1.583-4.641
		c-0.248-0.937-3.704-3.333-3.704-3.333l0.667-3.518c0,0-0.453-4.128-0.296-4.899c0.343-1.682,1.167-1.917,1.75-4.917
		c0.874-4.5-0.583-6.333-3.083-8c-2.012-1.342-4.566-1.931-6.907-1.324C46.889,3.927,43.68,4.75,42.52,5"/>
	<g display="inline">
		<path fill="#7D7B84" d="M42.52,5l-0.008,22.419"/>
		<polygon fill="#6A6971" points="42.52,5 42.565,16.21 42.511,27.419 42.465,16.21 		"/>
	</g>
	<path display="inline" fill="#6A6971" d="M55.227,27.156c-0.892,1.135-3.809,0.925-5.029,0.521
		c-1.057-0.35-2.803-1.251-4.359-2.764c-1.07-1.042-1.478-2.157-0.494-3.746c2.734-4.413,4.598-6.783,6.734-6.833
		c0.675-0.016,1.869,0.842,2.365,1.251c0.701,0.579,1.385,3.868,1.385,3.868l0.055,3.303C55.883,22.756,55.848,26.364,55.227,27.156
		z"/>
	<path display="inline" fill="#E0B54B" d="M55.399,26.417c-0.906,0.908-3.871,0.739-5.112,0.417c-1.074-0.279-2.85-1-4.432-2.209
		c-1.088-0.833-1.502-1.725-0.502-2.995c2.778-3.528,4.673-5.422,6.845-5.462c0.687-0.013,1.901,0.673,2.405,1
		c0.713,0.462,1.408,3.092,1.408,3.092l0.055,2.64C56.066,22.9,56.031,25.784,55.399,26.417z"/>
	<g display="inline">
		<path fill="#54545A" d="M42.52,45.25c0,0,1.221-0.03,2.34-0.13c0,0,1.375-0.872,1.744-1.119c0.863-0.577,1.775-1.904,2-2.917
			c0.35-1.563-0.693-6.074-0.693-6.074c-0.611-2.93-1.311-5.89-1.641-6.43c-0.67-1.08-3.77-1.16-3.77-1.16"/>
		<path fill="#474747" d="M42.52,45.25c0.78-0.039,1.56-0.093,2.336-0.176l-0.021,0.008l1.175-0.774
			c0.394-0.259,0.792-0.497,1.106-0.838c0.633-0.666,1.154-1.48,1.384-2.363c0.165-0.893,0.021-1.845-0.095-2.764
			c-0.133-0.925-0.31-1.844-0.49-2.762c-0.381-1.837-0.752-3.676-1.222-5.49c-0.121-0.451-0.24-0.908-0.412-1.333
			c-0.172-0.421-0.616-0.639-1.036-0.815c-0.87-0.329-1.812-0.458-2.745-0.523c0.937,0.028,1.882,0.119,2.784,0.419
			c0.433,0.155,0.919,0.393,1.124,0.863c0.186,0.442,0.31,0.895,0.438,1.348c0.496,1.814,0.892,3.65,1.298,5.483
			c0.204,0.918,0.366,1.846,0.486,2.78c0.102,0.934,0.241,1.878,0.053,2.838c-0.257,0.934-0.799,1.745-1.46,2.425
			c-0.33,0.35-0.75,0.593-1.142,0.843l-1.198,0.739l-0.01,0.007l-0.011,0.001C44.082,45.219,43.301,45.242,42.52,45.25z"/>
	</g>
	<g display="inline">
		<path fill="#54545A" d="M42.52,45.25"/>
	</g>
	<g display="inline">
		<path fill="#54545A" d="M42.5,27.42"/>
	</g>
	<path display="inline" fill="#74727B" d="M44.859,39.85v5.27c0.051,0,0.1-0.01,0.15-0.01c0.77-0.08,2.131-1.523,2.261-1.693
		c0.34-0.42,1.153-1.663,1.333-2.333c0,0-0.205-3.576-0.418-4.749c-0.27-1.493-1.621-5.849-1.621-5.849l-1.415,4.534L44.859,39.85z"
		/>
	<path display="inline" fill="#7D7B84" d="M42.52,27.704c0,0,3.168-0.179,3.668,1.571s1.949,5.495,1.5,7.059
		c-0.441,1.534-3.668,4.75-5.168,4.75V27.704z"/>
	<path display="inline" fill="#7D7B84" d="M44.859,45.12v0.13l0.15-0.14C44.959,45.11,44.91,45.12,44.859,45.12z"/>
	
		<ellipse transform="matrix(-0.9484 0.3172 -0.3172 -0.9484 103.5393 62.9248)" display="inline" fill="#45454B" cx="46.647" cy="39.891" rx="0.905" ry="0.639"/>
	
		<ellipse transform="matrix(-0.9625 0.2714 -0.2714 -0.9625 103.2764 69.3975)" display="inline" fill="#45454B" cx="46.84" cy="41.839" rx="0.997" ry="0.677"/>
	<path display="inline" fill="#F6DF85" d="M55.449,26.349c-0.837,0.839-3.576,0.683-4.724,0.385
		c-0.992-0.258-2.632-0.924-4.095-2.042c-1.004-0.77-1.387-1.594-0.463-2.768c2.566-3.259,4.317-5.01,6.324-5.046
		c0.633-0.012,1.756,0.622,2.223,0.924c0.658,0.427,1.301,2.858,1.301,2.858l0.051,2.438C56.066,23.099,56.033,25.764,55.449,26.349
		z"/>
	<path display="inline" fill="#91929D" d="M57.205,35.016c0,0-2.877-4.334-4.16-3.766c-0.323,0.144,0,1.417,0,1.417l-1.409,1.438
		c0,0-1.042-0.791-1.269-0.489c-1.104,1.468,2.678,7.052,2.678,7.052C54.598,39.891,57.162,36.77,57.205,35.016z"/>
	<g display="inline">
		<path fill="#45454B" d="M28.084,35.493c0-0.477,2.203-2.743,2.629-2.743c0.397,0,2.849,2.43,2.849,2.844
			c0,0.336-1.906,4.062-2.228,4.062C30.655,39.656,28.084,36.129,28.084,35.493z"/>
		<path fill="#7D7B84" d="M28.084,35.493c0.091-0.367,0.37-0.649,0.595-0.942c0.241-0.288,0.496-0.563,0.76-0.829
			c0.266-0.265,0.538-0.524,0.836-0.754c0.151-0.095,0.3-0.269,0.513-0.222c0.183,0.077,0.327,0.195,0.478,0.31
			c0.586,0.472,1.124,0.998,1.635,1.548c0.247,0.285,0.513,0.548,0.687,0.906c0.043,0.229-0.09,0.386-0.144,0.564l-0.231,0.514
			c-0.328,0.676-0.679,1.339-1.056,1.989c-0.191,0.323-0.38,0.648-0.616,0.946c-0.062,0.059-0.12,0.179-0.249,0.156
			c-0.098-0.02-0.188-0.071-0.264-0.125c-0.157-0.108-0.296-0.237-0.43-0.369c-0.53-0.534-0.99-1.13-1.428-1.739
			C28.76,36.828,28.274,36.22,28.084,35.493z M28.084,35.493c0.198,0.724,0.69,1.326,1.105,1.94c0.443,0.603,0.91,1.193,1.442,1.718
			c0.134,0.129,0.273,0.255,0.426,0.357c0.077,0.053,0.155,0.095,0.24,0.113c0.072,0.025,0.134-0.074,0.193-0.137
			c0.227-0.293,0.413-0.62,0.6-0.944c0.368-0.651,0.71-1.318,1.031-1.995c0.139-0.328,0.373-0.697,0.383-1.006
			c-0.151-0.321-0.42-0.605-0.66-0.885c-0.502-0.553-1.034-1.085-1.611-1.56c-0.145-0.114-0.296-0.236-0.458-0.307
			c-0.167-0.048-0.333,0.115-0.479,0.209c-0.298,0.225-0.573,0.481-0.841,0.742c-0.267,0.263-0.524,0.535-0.769,0.819
			C28.461,34.849,28.179,35.127,28.084,35.493z"/>
	</g>
	<g display="inline">
		<path fill="#7D7B84" d="M56.939,35.526c-0.094-0.365-0.376-0.645-0.603-0.935c-0.243-0.285-0.5-0.558-0.767-0.822
			c-0.268-0.262-0.542-0.518-0.839-0.744c-0.146-0.095-0.312-0.258-0.479-0.211c-0.162,0.07-0.313,0.192-0.459,0.306
			c-0.578,0.474-1.11,1.004-1.614,1.557c-0.24,0.279-0.511,0.562-0.661,0.883c0.009,0.31,0.242,0.679,0.381,1.007
			c0.318,0.677,0.659,1.345,1.025,1.998c0.186,0.324,0.372,0.652,0.598,0.945c0.059,0.063,0.12,0.163,0.192,0.138
			c0.086-0.017,0.163-0.059,0.241-0.112c0.152-0.103,0.292-0.229,0.427-0.357c0.533-0.523,1.001-1.113,1.446-1.715
			C56.246,36.85,56.74,36.25,56.939,35.526z M56.939,35.526c-0.191,0.727-0.68,1.333-1.09,1.952c-0.439,0.608-0.9,1.203-1.432,1.736
			c-0.135,0.131-0.273,0.26-0.431,0.368c-0.076,0.053-0.167,0.104-0.265,0.124c-0.129,0.022-0.187-0.098-0.249-0.157
			c-0.234-0.299-0.423-0.624-0.614-0.948c-0.374-0.651-0.724-1.315-1.051-1.992l-0.229-0.515c-0.055-0.178-0.187-0.335-0.143-0.564
			c0.174-0.357,0.44-0.621,0.688-0.904c0.513-0.549,1.052-1.075,1.639-1.545c0.15-0.114,0.295-0.232,0.479-0.309
			c0.213-0.046,0.361,0.128,0.513,0.223c0.297,0.231,0.569,0.491,0.834,0.756c0.264,0.267,0.518,0.543,0.759,0.831
			C56.57,34.876,56.85,35.159,56.939,35.526z"/>
	</g>
	<linearGradient id="SVGID_1_" gradientUnits="userSpaceOnUse" x1="26.8115" y1="36.0186" x2="32.0389" y2="33.2391">
		<stop  offset="0" style="stop-color:#8C8C8C"/>
		<stop  offset="1" style="stop-color:#333333"/>
	</linearGradient>
	<path display="inline" fill="url(#SVGID_1_)" d="M32.652,34.392l-1.473-1.372c0,0-2.474,0.054-3.095,0.387
		c-1.398,0.75-1.428,1.594-1.397,2.031s0.244,0.938,0.556,1.188s1.033,0.562,1.293,0.411l-0.525-1.103
		c-0.043-0.25,0.271-0.757,0.489-0.886c0.577-0.341,2.018-0.36,2.688-0.36C31.571,34.688,32.652,34.392,32.652,34.392z"/>
	<linearGradient id="SVGID_2_" gradientUnits="userSpaceOnUse" x1="28.624" y1="39.0962" x2="33.9459" y2="36.2665">
		<stop  offset="0" style="stop-color:#8C8C8C"/>
		<stop  offset="1" style="stop-color:#333333"/>
	</linearGradient>
	<path display="inline" fill="url(#SVGID_2_)" d="M32.821,34.573c0,0-1.245,0.423-1.634,1.115c-0.364,0.647-0.625,2.188-0.656,2.656
		s-0.375,1.219-0.5,1.312s0.16-0.436,0.16-0.436l-0.521-0.587c0,0-0.666,0.913-0.533,1.397c0.145,0.53,1.025,0.671,1.488,0.344
		c0.684-0.484,0.952-2.817,1.156-3.5c0.193-0.646,0.375-0.672,1.239-0.942c0.552-0.172,0.541-0.409,0.482-0.5
		C33.349,35.198,32.821,34.573,32.821,34.573z"/>
	<linearGradient id="SVGID_3_" gradientUnits="userSpaceOnUse" x1="27.7295" y1="36.4058" x2="31.3327" y2="36.7845">
		<stop  offset="0" style="stop-color:#8C8C8C"/>
		<stop  offset="1" style="stop-color:#333333"/>
	</linearGradient>
	<path display="inline" fill="url(#SVGID_3_)" d="M31.484,35.332c0,0-1.552-0.218-2.365,0.174c-0.885,0.427-1.307,1.207-1.432,1.569
		s-0.026,0.594,0.127,0.728s0.975,0.235,1.217,0l-0.166-0.242c0,0-1.041,0.348-0.781-0.486c0.1-0.323,0.634-0.872,1.259-1.142
		c0.539-0.232,1.844-0.246,1.844-0.246L31.484,35.332z"/>
	<path display="inline" fill="#7D7B84" d="M32.821,40.887c1.542-0.214,4.011,2.737,4.054,3.737c0,0-2.333,2.209-2.708,2.209
		c-0.819,0-2.683-1.416-2.683-1.878C31.484,44.541,32.821,40.887,32.821,40.887z"/>
	<path display="inline" fill="#7D7B84" d="M52.179,40.887c-1.542-0.214-4.011,2.737-4.054,3.737c0,0,2.333,2.209,2.708,2.209
		c0.819,0,2.683-1.416,2.683-1.878C53.516,44.541,52.179,40.887,52.179,40.887z"/>
	<g display="inline">
		<path fill="#7D7B84" d="M36.545,44.932c-0.044-1.024-3.248-4.635-3.839-4.043c-0.108,0.108-0.128,0.67-0.128,0.67"/>
		<path fill="#45454B" d="M36.545,44.932c-0.109-0.536-0.464-0.978-0.767-1.421c-0.323-0.437-0.677-0.85-1.05-1.244
			c-0.367-0.399-0.754-0.785-1.188-1.107c-0.216-0.146-0.459-0.326-0.716-0.306c-0.138,0.015-0.169,0.172-0.195,0.3
			c-0.025,0.133-0.04,0.269-0.05,0.405c0.002-0.136,0.01-0.272,0.028-0.408c0.017-0.123,0.041-0.307,0.207-0.34
			c0.297-0.034,0.536,0.155,0.763,0.296c0.448,0.318,0.845,0.698,1.224,1.092c0.37,0.403,0.715,0.828,1.032,1.273
			C36.134,43.919,36.475,44.383,36.545,44.932z"/>
	</g>
	<g display="inline">
		<path fill="#7D7B84" d="M48.494,44.932c0.043-1.025,3.247-4.635,3.838-4.044c0.109,0.108,0.129,0.67,0.129,0.67"/>
		<path fill="#45454B" d="M48.494,44.932c0.07-0.549,0.411-1.014,0.712-1.46c0.316-0.446,0.662-0.871,1.032-1.273
			c0.378-0.395,0.775-0.774,1.224-1.092c0.227-0.141,0.466-0.331,0.763-0.296c0.166,0.033,0.19,0.217,0.208,0.34
			c0.018,0.136,0.025,0.272,0.028,0.408c-0.01-0.136-0.024-0.271-0.05-0.405c-0.025-0.128-0.058-0.286-0.195-0.3
			c-0.258-0.02-0.5,0.16-0.717,0.306c-0.435,0.322-0.821,0.708-1.188,1.107c-0.373,0.394-0.727,0.808-1.05,1.245
			C48.957,43.954,48.603,44.395,48.494,44.932z"/>
	</g>
	<path display="inline" fill="#91929D" d="M25.092,29.275c0.796-1.576,2.403-2.478,4.34-3.122l0.36,1.003
		c-1.852,1.145-2.775,1.812-3.788,3.573L25.092,29.275z"/>
	<path display="inline" fill="#7D7B84" d="M31.266,3.848c0,0-6.641-4.348-8.516-1.973s-1.084,4.95,0,6.875
		c1.337,2.375,4.589,5.125,5.503,5.841c0.639,0.5-0.083-0.517,0.189-3.715c0.114-1.344-1.154-1.402-0.66-2.125
		C29.477,6.268,29.057,6.057,31.266,3.848z"/>
	<g display="inline">
		<path fill="#7D7B84" d="M28.253,15.594c-0.259-0.609-0.525-1.399-0.754-2.636c-0.293-1.583-0.219-3.009-0.037-4.063"/>
		<path fill="#6A6971" d="M28.249,15.596c-0.458-1.044-0.727-2.166-0.891-3.292c-0.151-1.133-0.145-2.293,0.1-3.41l0.01,0.002
			c-0.142,1.128-0.154,2.27-0.03,3.396c0.147,1.125,0.39,2.246,0.82,3.3L28.249,15.596z"/>
	</g>
	<g display="inline">
		<path fill="#7D7B84" d="M27.302,8.416c0,0-2.388-2.66-3.327-2.812"/>
		<path fill="#6A6971" d="M27.265,8.45c-0.486-0.546-0.992-1.076-1.521-1.581c-0.266-0.251-0.538-0.497-0.824-0.723
			c-0.289-0.218-0.585-0.454-0.944-0.541c0.361,0.079,0.665,0.309,0.959,0.521c0.293,0.221,0.571,0.46,0.843,0.707
			c0.542,0.494,1.06,1.014,1.561,1.55L27.265,8.45z"/>
	</g>
	<path display="inline" fill="#91929D" d="M27.98,9.459c0.583-1.49,3.083-3.973,4.439-4.844c0.29-0.186-0.489-1.094-0.833-1.094
		c-1.181,0-4.889,4.14-4.805,5.229C26.809,9.098,27.854,9.783,27.98,9.459z"/>
</g>
<g id="Layer_7" display="none">
	<path display="inline" fill="#BFBFBF" d="M42.5,5.12V45c-8.5,0-14.25-2.5-14.25-2.5l0.68-35.71C33.63,5.49,36.38,5.11,42.5,5.12z"
		/>
	<path display="inline" fill="#A1A1A1" d="M42.5,3.88v1.471c-6.12-0.012-8.87,0.324-13.57,1.772l0.02-1.448
		C33.5,3.746,42.5,3.88,42.5,3.88z"/>
	<path display="inline" fill="#BFBFBF" d="M42.5,3.88v1.24c-6.12-0.01-8.87,0.37-13.57,1.67l0.02-1.3C33.5,3.76,42.5,3.88,42.5,3.88
		z"/>
	<path display="inline" fill="#A1A1A1" d="M42.5,18.189c0,0-9.854-0.109-13.771,0.938c-1.388,0.371-0.633,7.902-0.633,8.396
		s3.831,0.802,4.009,0.624c0.144-0.144,0.042-3.333,0.042-3.333L42.5,24.77L42.5,18.189z"/>
	<path display="inline" fill="#C2C2C2" d="M42.5,18.465c0,0-13.126,0-14.25,0.972c-1.125,0.972-0.625,7.236-0.625,7.749
		s4.236,0.88,4.349,0.767c0.107-0.107,0-3.624,0-3.624H42.5L42.5,18.465z"/>
	<path display="inline" fill="#A8A8A8" d="M40.285,19.249c0,0-10.203,0.219-10.809,0.618c-0.606,0.398-0.691,5.598-0.222,5.833
		c0.469,0.236,10.559,0.075,11.031,0V19.249z"/>
	<path display="inline" fill="#C2C2C2" d="M40.285,19.481c0,0-10.054,0.206-10.65,0.581s-0.681,5.265-0.219,5.487
		c0.462,0.222,10.403,0.07,10.869,0V19.481z"/>
	<path display="inline" d="M41.164,20.696c0,0-10.704,0.074-10.913,0.231s-0.25,2.866,0,2.991s10.913,0.208,10.913,0.208V20.696z"/>
	<path display="inline" fill="#757575" d="M40.667,20.827c-0.042,0.756-0.084,1.746,0,3.293H42.5l0-3.293H40.667z"/>
	<path display="inline" fill="#A1A1A1" d="M40.229,18.294c-0.345,0.155-0.312,2.448,0,2.542c0.704,0.212,2.271,0.094,2.271,0.094
		v-2.655C42.5,18.276,41.28,17.821,40.229,18.294z"/>
	<path display="inline" fill="#C2C2C2" d="M40.458,18.299c-0.474,0.144-0.394,2.104,0,2.379c0.354,0.248,1.875,0.11,2.042,0.11
		l0-2.716C41.833,17.978,40.875,18.173,40.458,18.299z"/>
	<path display="inline" fill="#A1A1A1" d="M40.247,23.918c0.243-0.13,2.253-0.205,2.253-0.205v19.787l-2.253-0.991
		C40.247,42.51,40.002,24.05,40.247,23.918z"/>
	<path display="inline" fill="#BFBFBF" d="M40.458,24.125c0.208-0.207,2.042-0.207,2.042-0.207V43.5l-2.042-1
		C40.458,42.5,40.182,24.4,40.458,24.125z"/>
	<path display="inline" fill="#B2B2B2" d="M28.279,40.999c0,0-2.571,1.793-2.737,2.501s13.75,4.958,16.958,4.958v-4.584
		C42.5,43.874,28.264,41.776,28.279,40.999z"/>
	<path display="inline" fill="#9C9C9C" d="M42.5,18.73c-0.427,0-0.772,0.342-0.772,0.764c0,0.423,0.346,0.765,0.772,0.765"/>
	<path display="inline" fill="#B2B2B2" d="M42.5,18.83c-0.427,0-0.772,0.31-0.772,0.691c0,0.382,0.346,0.692,0.772,0.692"/>
	<path display="inline" fill="#9C9C9C" d="M42.5,25.824c-0.427,0-0.772,0.35-0.772,0.781c0,0.433,0.346,0.782,0.772,0.782"/>
	<path display="inline" fill="#B2B2B2" d="M42.5,25.924c-0.427,0-0.772,0.31-0.772,0.691c0,0.382,0.346,0.692,0.772,0.692"/>
	<path display="inline" fill="#9C9C9C" d="M42.5,30.921c-0.427,0-0.772,0.34-0.772,0.76c0,0.421,0.346,0.761,0.772,0.761"/>
	<path display="inline" fill="#B2B2B2" d="M42.5,30.979c-0.427,0-0.772,0.31-0.772,0.691c0,0.382,0.346,0.692,0.772,0.692"/>
	<path display="inline" fill="#9C9C9C" d="M42.5,36.046c-0.427,0-0.772,0.335-0.772,0.748c0,0.414,0.346,0.749,0.772,0.749"/>
	<path display="inline" fill="#B2B2B2" d="M42.5,36.08c-0.427,0-0.772,0.31-0.772,0.691c0,0.382,0.346,0.692,0.772,0.692"/>
	<path display="inline" fill="#9C9C9C" d="M42.5,41.025c-0.427,0-0.772,0.33-0.772,0.737S42.073,42.5,42.5,42.5"/>
	<path display="inline" fill="#B2B2B2" d="M42.5,41.037c-0.427,0-0.772,0.31-0.772,0.691c0,0.382,0.346,0.692,0.772,0.692"/>
	<path display="inline" fill="#BFBFBF" d="M42.5,5.12V45c8.5,0,14.25-2.5,14.25-2.5L56.07,6.79C51.37,5.49,48.62,5.11,42.5,5.12z"/>
	<path display="inline" fill="#A1A1A1" d="M42.5,3.88v1.471c6.12-0.012,8.87,0.324,13.57,1.772L56.05,5.675
		C51.5,3.746,42.5,3.88,42.5,3.88z"/>
	<path display="inline" fill="#BFBFBF" d="M42.5,3.88v1.24c6.12-0.01,8.87,0.37,13.57,1.67l-0.021-1.3
		C51.5,3.76,42.5,3.88,42.5,3.88z"/>
	<path display="inline" fill="#A1A1A1" d="M42.5,18.189c0,0,9.854-0.109,13.771,0.938c1.389,0.371,0.633,7.902,0.633,8.396
		s-3.83,0.802-4.008,0.624c-0.145-0.144-0.042-3.333-0.042-3.333L42.5,24.77V18.189z"/>
	<path display="inline" fill="#C2C2C2" d="M42.5,18.465c0,0,13.126,0,14.25,0.972c1.125,0.972,0.625,7.236,0.625,7.749
		s-4.236,0.88-4.35,0.767c-0.106-0.107,0-3.624,0-3.624H42.5V18.465z"/>
	<path display="inline" fill="#A8A8A8" d="M44.715,19.249c0,0,10.203,0.219,10.809,0.618c0.606,0.398,0.691,5.598,0.223,5.833
		c-0.469,0.236-10.559,0.075-11.031,0V19.249z"/>
	<path display="inline" fill="#C2C2C2" d="M44.715,19.481c0,0,10.055,0.206,10.65,0.581s0.681,5.265,0.219,5.487
		c-0.463,0.222-10.402,0.07-10.869,0V19.481z"/>
	<path display="inline" d="M43.836,20.696c0,0,10.705,0.074,10.913,0.231s0.25,2.866,0,2.991s-10.913,0.208-10.913,0.208V20.696z"/>
	<path display="inline" fill="#757575" d="M44.332,20.827c0.043,0.756,0.084,1.746,0,3.293H42.5v-3.293H44.332z"/>
	<path display="inline" fill="#A1A1A1" d="M44.771,18.294c0.345,0.155,0.312,2.448,0,2.542c-0.704,0.212-2.271,0.094-2.271,0.094
		v-2.655C42.5,18.276,43.721,17.821,44.771,18.294z"/>
	<path display="inline" fill="#C2C2C2" d="M44.542,18.299c0.474,0.144,0.394,2.104,0,2.379c-0.354,0.248-1.875,0.11-2.042,0.11
		v-2.716C43.167,17.978,44.125,18.173,44.542,18.299z"/>
	<path display="inline" fill="#A1A1A1" d="M44.754,23.918c-0.244-0.13-2.254-0.205-2.254-0.205v19.787l2.254-0.991
		C44.754,42.51,44.998,24.05,44.754,23.918z"/>
	<path display="inline" fill="#BFBFBF" d="M44.542,24.125c-0.208-0.207-2.042-0.207-2.042-0.207V43.5l2.042-1
		C44.542,42.5,44.818,24.4,44.542,24.125z"/>
	<path display="inline" fill="#B2B2B2" d="M56.721,40.999c0,0,2.571,1.793,2.738,2.501c0.166,0.708-13.751,4.958-16.959,4.958
		v-4.584C42.5,43.874,56.736,41.776,56.721,40.999z"/>
	<path display="inline" fill="#9C9C9C" d="M42.5,18.73c0.427,0,0.772,0.342,0.772,0.764c0,0.423-0.346,0.765-0.772,0.765"/>
	<path display="inline" fill="#B2B2B2" d="M42.5,18.83c0.427,0,0.772,0.31,0.772,0.691c0,0.382-0.346,0.692-0.772,0.692"/>
	<path display="inline" fill="#9C9C9C" d="M42.5,25.824c0.427,0,0.772,0.35,0.772,0.781c0,0.433-0.346,0.782-0.772,0.782"/>
	<path display="inline" fill="#B2B2B2" d="M42.5,25.924c0.427,0,0.772,0.31,0.772,0.691c0,0.382-0.346,0.692-0.772,0.692"/>
	<path display="inline" fill="#9C9C9C" d="M42.5,30.921c0.427,0,0.772,0.34,0.772,0.76c0,0.421-0.346,0.761-0.772,0.761"/>
	<path display="inline" fill="#B2B2B2" d="M42.5,30.979c0.427,0,0.772,0.31,0.772,0.691c0,0.382-0.346,0.692-0.772,0.692"/>
	<path display="inline" fill="#9C9C9C" d="M42.5,36.046c0.427,0,0.772,0.335,0.772,0.748c0,0.414-0.346,0.749-0.772,0.749"/>
	<path display="inline" fill="#B2B2B2" d="M42.5,36.08c0.427,0,0.772,0.31,0.772,0.691c0,0.382-0.346,0.692-0.772,0.692"/>
	<path display="inline" fill="#9C9C9C" d="M42.5,41.025c0.427,0,0.772,0.33,0.772,0.737S42.927,42.5,42.5,42.5"/>
	<path display="inline" fill="#B2B2B2" d="M42.5,41.037c0.427,0,0.772,0.31,0.772,0.691c0,0.382-0.346,0.692-0.772,0.692"/>
</g>
<g id="Layer_8">
	<path fill="#838E75" d="M42.49,5.49v15.08l-0.408,0.325c-0.04,0.01-0.283,0.188-0.312,0.188c-0.36,0-0.789,0.072-1.229-0.368
		c0,0-0.801-0.915-1.042-1.195c-0.44-0.54-0.99,0.105-0.99,0.105c0,0.78-2.01,0.065-3.3-0.075c-0.28-0.03-0.68,0.26-0.68,0.69
		c0,0.43,0.63,0.63,0.63,0.63c-2.39-0.1-6.97-1.9-6.97-2.87c0-0.15-0.03-0.19-0.08-0.13l-1.44-2.54
		C26.67,15.33,26.88,5.49,42.49,5.49z"/>
	<path fill="#737C67" d="M29.6,25.1v4.22c0,1.92,3.01,7.4,4.22,8.62c1.22,1.21,2.86,3.31,5.24,0.94c0,0,0.61-0.84,2.94-0.94
		c0.16-0.01,0.32-0.01,0.49-0.01v0.88c-0.17,0-0.33,0-0.49,0.01c-2.29,0.13-2.62,1.12-2.62,1.12c-1.25,1.25-2.67,0.96-3.91,0.23
		c0.09,0.16,0.33,0.5,0.55,1.03c0,0.01,0,0.01,0.01,0.02l2.25,0.72c0.02,0.03,0.04,0.05,0.07,0.08c0.21,0.26,0.52,0.58,0.84,0.73
		c0.62,0.31,2.29,0.54,3.3,0.54v2.08c0,0-2.68-0.2-3.24-0.79c0,0-0.63,0.67-0.63,2.04c0,1.01-0.13,1.71,0.25,2.22
		c-0.66-0.149-1.27-0.33-1.7-0.51c-0.67-0.28-1.6-2.33-1.6-2.33c-2.05,0-3.34-2.43-4.56-4l4.12-2.04c-0.2-0.13-0.39-0.27-0.58-0.42
		c-0.18-0.14-0.35-0.29-0.52-0.44c-0.49-0.43-0.9-0.85-1.21-1.16c-0.47-0.47-1.25-1.57-2.05-2.86c-0.11-0.18-0.22-0.36-0.34-0.55
		c-0.07-0.12-0.14-0.24-0.21-0.37c-0.33-0.57-0.65-1.16-0.94-1.73c-0.03-0.05-0.05-0.1-0.07-0.15c-0.1-0.21-0.2-0.41-0.29-0.61
		c-0.03-0.06-0.06-0.11-0.08-0.17c-0.14-0.33-0.27-0.66-0.37-0.95c-0.05-0.15-0.1-0.29-0.13-0.43c-0.06-0.18-0.1-0.35-0.12-0.5
		c-0.02-0.13-0.03-0.24-0.03-0.35c0-0.07,0-0.14-0.01-0.21c-0.02,0.15-0.52,0.26-0.52,0.26l-1.51-0.34
		c-0.47-0.3-1.25-5.39-1.25-5.39h-0.35c0-1.93,0.06-6.31,0.57-7.15c0.93-1.51,1.55-1.11,1.55-1.11l1.31,2.32
		c0.01,0.01,0.01,0.02,0.02,0.02l0.11,0.19c0,0,0,0,0,0.01c0.05-0.06,0.08-0.02,0.08,0.13c0,0.85,3.55,2.35,6.02,2.77
		c0.17,0.02,0.32,0.04,0.48,0.06s0.32,0.04,0.47,0.04c0.08,0.01,0.15,0.01,0.22,0.01c2.31,0,1.93,1.27,2.68,2.02
		c0.44,0.44,4.18,0.67,4.43,0.69v1c-0.25-0.02-4.36-0.24-4.8-0.68c-0.75-0.75-0.32-1.41-2.63-1.41c-2.32,0-3.58-0.98-4.56-0.12
		C29.89,22.91,29.6,23.54,29.6,25.1z"/>
	<path fill="#B1B7A5" d="M30.4,41.19c-1.08-1.44-3.28-4.38-3.85-5.09c-0.81-1-2.85-3.16-2-11.6c0,0,0-0.35,0-0.91h0.35
		c0,0,0.78,5.09,1.25,5.39l1.51,0.34c0,0,0.5-0.11,0.52-0.26c0.01,0.07,0.01,0.14,0.01,0.21c0,0.11,0.01,0.22,0.03,0.35
		c0.23,1.45,1.7,4.18,2.99,6.16c0,0,0.312,1.93,0.853,2.47C34.073,40.26,30.4,41.19,30.4,41.19z"/>
	<path opacity="0.5" fill="#223749" d="M42.49,23.59v15.22c-0.17,0-0.33,0-0.49,0.01c-2.29,0.13-2.62,1.12-2.62,1.12
		c-1.25,1.25-2.67,0.96-3.91,0.23c-0.11-0.06-0.23-0.13-0.34-0.21c-0.2-0.13-0.39-0.27-0.58-0.42c-0.18-0.14-0.35-0.29-0.52-0.44
		c-0.49-0.43-0.9-0.85-1.21-1.16c-0.47-0.47-1.25-1.57-2.05-2.86c-0.11-0.18-0.22-0.36-0.34-0.55c-0.07-0.12-0.14-0.24-0.21-0.37
		c-0.34-0.57-0.66-1.16-0.94-1.73c-0.03-0.05-0.05-0.1-0.07-0.15c-0.1-0.21-0.2-0.41-0.29-0.61c-0.03-0.06-0.06-0.11-0.08-0.17
		c-0.14-0.33-0.27-0.66-0.37-0.95c-0.05-0.15-0.1-0.29-0.13-0.43c-0.06-0.18-0.1-0.35-0.12-0.5c-0.02-0.13-0.03-0.24-0.03-0.35
		c0-0.07,0-0.14-0.01-0.21V29c-0.05-0.85-0.31-1.92-0.58-2.96c-0.35-1.31-0.72-2.59-0.72-3.42c0-1.32,0.94-4.45,1.23-4.75
		c0.05-0.06,0.08-0.02,0.08,0.13c0,0.85,3.55,2.35,6.02,2.77c0.17,0.02,0.32,0.04,0.48,0.06s0.32,0.03,0.47,0.04
		c0.08,0.01,0.15,0.01,0.22,0.01c2.31,0,1.93,1.27,2.68,2.02C38.5,23.34,42.24,23.57,42.49,23.59z"/>
	<path fill="#A9AAA9" d="M28.19,29.03c0,0.01,0,0.02-0.01,0.03c-0.02,0.15-0.52,0.26-0.52,0.26l-1.51-0.34
		c-0.47-0.3-1.25-5.39-1.25-5.39c0-1.1,0.83-5.3,1.25-5.72c0.72-0.72,1.51-0.54,1.83-0.22c0.01,0.01,0.01,0.02,0.02,0.02l0.11,0.19
		c0,0,0,0,0,0.01c0.04,0.08,0.03,0.17-0.02,0.24c-0.34,0.5-0.9,4.01-0.9,5.33c0,0,0.18,1.24,0.41,2.6c0.18,1.14,0.41,2.36,0.58,2.96
		C28.18,29.01,28.19,29.02,28.19,29.03z"/>
	<path fill="none" stroke="#737C67" stroke-width="0.1" stroke-miterlimit="10" d="M31.598,7.955c0,0,1.527,1.295,1.527,1.732
		c0,0.539-1.398,1.031-1.5,1.562c0,0,1.98,4.875,10.865,4.875"/>
	<path fill="#B1B7A5" stroke="#737C67" stroke-width="0.1" stroke-miterlimit="10" d="M42.49,23.59c-0.25-0.02-3.99-0.25-4.43-0.69
		c-0.75-0.75-0.37-2.02-2.68-2.02c-0.07,0-0.72-0.174-0.8-0.184c0,0-0.455-0.266-0.455-0.696c0-0.43,0.805-0.48,1.085-0.45
		c0.612,0.066,1.591,0.049,2.165-0.3c0.633-0.385,0.845-1.121,1.135-1.41l0.927,0.243C39.997,19.313,40.25,20,40.25,20
		c0.44,0.44,0.545,0.497,0.905,0.497c0.03,0,1.335,0.074,1.335,0.074"/>
	<path fill="#3D3D3D" d="M27.621,29.025l-1.361-0.326c-0.43-0.283-1.135-5.09-1.135-5.09c0-1.04,0.748-5.009,1.128-5.406
		c0.788-0.822,1.832-0.096,1.832-0.096s-0.89,3.505-0.89,5.358c0,0,0.617,3.66,0.994,5.258
		C28.228,28.884,27.621,29.025,27.621,29.025z"/>
	<line fill="none" x1="24.55" y1="23.59" x2="24.54" y2="23.59"/>
	<path fill="#3D3D3D" d="M34.85,41.21c0,0-2.217,0.835-2.583,1.201s1.253,2.959,2.755,2.959C35.745,45.37,35.835,41.21,34.85,41.21z
		"/>
	<path fill="#5B6054" d="M35.13,39.96L31.01,42c0,0-0.373-0.499-0.743-0.989c0,0,2.187-1.477,2.187-1.852
		c0-0.297-1.281-1.8-1.443-2.175c-0.126-0.292-0.182-0.984,0.2-1.205c0,0,1.23,1.78,1.61,2.16c0.3,0.3,0.71,0.72,1.19,1.15
		l0.02,0.01C34.36,39.4,34.73,39.7,35.13,39.96z"/>
	<path fill="#5B6054" d="M36.42,43.29c0,0-0.14-1.19-0.48-2.1c-0.2-0.54-0.46-0.98-0.81-0.98L31.01,42l4.12-2.04
		c-0.2-0.13-0.39-0.27-0.58-0.42c-0.18-0.14-0.35-0.29-0.52-0.44l1.43,1.05c0,0.01,0.01,0.01,0.01,0.02
		c0.09,0.16,0.33,0.5,0.55,1.03c0,0.01,0,0.01,0.01,0.02C36.24,41.73,36.42,42.42,36.42,43.29z"/>
	<g>
		<path fill="#5B6054" d="M35.548,45.956c0.199-0.106,0.357-0.31,0.474-0.518c0.118-0.212,0.201-0.443,0.259-0.681
			c0.119-0.477,0.145-0.974,0.135-1.466c0.026,0.492,0.017,0.99-0.086,1.477c-0.11,0.475-0.286,0.985-0.74,1.277L35.548,45.956z"/>
	</g>
	<polygon fill="#4F292E" points="27.528,37.36 29.281,36.145 29.763,36.848 28.082,38.091 	"/>
	<polygon fill="#4F292E" points="28.284,38.37 30.037,37.154 30.519,37.857 28.837,39.1 	"/>
	<polygon fill="#4F292E" points="29.062,39.402 30.815,38.186 31.297,38.89 29.615,40.132 	"/>
	<path fill="#5B6054" d="M28.84,31.5l-0.556,0.25c-0.56-0.56-0.624-2.43-0.624-2.43s0.5-0.11,0.52-0.26
		c0.01,0.07,0.01,0.14,0.01,0.21c0,0.11,0.01,0.22,0.03,0.35C28.3,30.12,28.53,30.78,28.84,31.5z"/>
	<path fill="#4F292E" d="M36.03,41.22l-0.09-0.03l0.08,0.01C36.02,41.21,36.02,41.21,36.03,41.22z"/>
	<path fill="none" stroke="#5B6054" stroke-width="0.1" stroke-miterlimit="10" d="M38.28,41.63c0,0,0.03,0.15,0.07,0.39
		c0.15,0.69,0.48,2.12,0.9,2.56"/>
	<path fill="#3D3D3D" d="M42.49,38.81v4.48c-1.01,0-2.68-0.23-3.3-0.54c-0.35-0.17-0.69-0.53-0.91-0.81l-2.25-0.72
		c-0.01-0.01-0.01-0.01-0.01-0.02c-0.22-0.53-0.46-0.87-0.55-1.03c1.24,0.73,2.66,1.02,3.91-0.23c0,0,0.33-0.99,2.62-1.12
		C42.16,38.81,42.32,38.81,42.49,38.81z"/>
	<path fill="#737C67" stroke="#5B6054" stroke-width="0.1" stroke-miterlimit="10" d="M42.49,49.33l0.01,0.92"/>
	<path fill="#737C67" stroke="#5B6054" stroke-width="0.1" stroke-miterlimit="10" d="M42.5,50.25c-1.69,0-3.5-1.23-3.63-1.41
		c-0.38-0.51-0.25-1.21-0.25-2.22c0-1.37,0.63-2.04,0.63-2.04c0.56,0.59,3.24,0.79,3.24,0.79"/>
	<g>
		<path fill="#737C67" d="M38.683,45.932c0,0,2.235,0.943,3.808,0.943"/>
		<path fill="#5B6054" d="M38.731,45.816c0.593,0.265,1.209,0.495,1.834,0.688c0.626,0.188,1.267,0.345,1.925,0.371
			c-0.659,0.015-1.316-0.102-1.958-0.251c-0.643-0.153-1.274-0.346-1.898-0.577L38.731,45.816z"/>
	</g>
	<g>
		<path fill="#737C67" d="M38.604,47.415c0,0,1.834,1.023,3.896,1.023"/>
		<path fill="#5B6054" d="M38.664,47.306c1.162,0.641,2.481,1.08,3.836,1.133c-1.36,0.029-2.713-0.324-3.957-0.914L38.664,47.306z"
			/>
	</g>
	<path fill="#838E75" d="M35.13,6.429c0,0,0.447-0.939,1.914-1.554c0,0,1.312-0.312,5.446-0.312l0.01,3.393L35.13,6.429z"/>
	<path fill="#3D3D3D" d="M42.49,5.49c0,0-4.759,0.04-5.446,0.477s-1.467,1.062-1.467,1.375s0.469,0.613,0.675,0.613
		s1.648-0.499,2.056-0.58c0,0,2.567,0,4.192,0"/>
	<rect fill="none" width="85" height="85"/>
	<path fill="#838E75" d="M42.51,5.49v15.08l0.408,0.325c0.039,0.01,0.282,0.188,0.312,0.188c0.359,0,0.789,0.072,1.229-0.368
		c0,0,0.801-0.915,1.041-1.195c0.44-0.54,0.99,0.105,0.99,0.105c0,0.78,2.01,0.065,3.3-0.075c0.28-0.03,0.681,0.26,0.681,0.69
		c0,0.43-0.631,0.63-0.631,0.63c2.391-0.1,6.971-1.9,6.971-2.87c0-0.15,0.029-0.19,0.08-0.13l1.439-2.54
		C58.33,15.33,58.12,5.49,42.51,5.49z"/>
	<path fill="#737C67" d="M55.4,25.1v4.22c0,1.92-3.01,7.4-4.221,8.62c-1.22,1.21-2.859,3.31-5.24,0.94c0,0-0.609-0.84-2.939-0.94
		c-0.16-0.01-0.32-0.01-0.49-0.01v0.88c0.17,0,0.33,0,0.49,0.01c2.29,0.13,2.62,1.12,2.62,1.12c1.25,1.25,2.67,0.96,3.909,0.23
		c-0.09,0.16-0.329,0.5-0.549,1.03c0,0.01,0,0.01-0.01,0.02l-2.25,0.72c-0.021,0.03-0.041,0.05-0.07,0.08
		c-0.211,0.26-0.521,0.58-0.84,0.73c-0.621,0.31-2.291,0.54-3.301,0.54v2.08c0,0,2.68-0.2,3.24-0.79c0,0,0.63,0.67,0.63,2.04
		c0,1.01,0.13,1.71-0.25,2.22c0.66-0.149,1.271-0.33,1.7-0.51c0.67-0.28,1.6-2.33,1.6-2.33c2.051,0,3.34-2.43,4.561-4l-4.12-2.04
		c0.2-0.13,0.39-0.27,0.58-0.42c0.18-0.14,0.35-0.29,0.521-0.44c0.489-0.43,0.899-0.85,1.209-1.16c0.471-0.47,1.25-1.57,2.051-2.86
		c0.109-0.18,0.22-0.36,0.34-0.55c0.07-0.12,0.14-0.24,0.209-0.37c0.33-0.57,0.65-1.16,0.941-1.73c0.029-0.05,0.049-0.1,0.069-0.15
		c0.101-0.21,0.2-0.41,0.29-0.61c0.029-0.06,0.061-0.11,0.08-0.17c0.14-0.33,0.27-0.66,0.369-0.95c0.051-0.15,0.101-0.29,0.131-0.43
		c0.061-0.18,0.1-0.35,0.119-0.5c0.021-0.13,0.031-0.24,0.031-0.35c0-0.07,0-0.14,0.01-0.21c0.02,0.15,0.52,0.26,0.52,0.26
		l1.51-0.34c0.471-0.3,1.25-5.39,1.25-5.39h0.351c0-1.93-0.06-6.31-0.57-7.15c-0.93-1.51-1.55-1.11-1.55-1.11l-1.311,2.32
		c-0.01,0.01-0.01,0.02-0.02,0.02l-0.109,0.19c0,0,0,0,0,0.01c-0.051-0.06-0.08-0.02-0.08,0.13c0,0.85-3.551,2.35-6.021,2.77
		c-0.17,0.02-0.319,0.04-0.479,0.06s-0.32,0.04-0.471,0.04c-0.08,0.01-0.15,0.01-0.22,0.01c-2.31,0-1.931,1.27-2.681,2.02
		c-0.439,0.44-4.18,0.67-4.43,0.69v1c0.25-0.02,4.36-0.24,4.801-0.68c0.75-0.75,0.319-1.41,2.629-1.41c2.32,0,3.58-0.98,4.561-0.12
		C55.109,22.91,55.4,23.54,55.4,25.1z"/>
	<path fill="#B1B7A5" d="M54.6,41.19c1.08-1.44,3.28-4.38,3.851-5.09c0.81-1,2.85-3.16,2-11.6c0,0,0-0.35,0-0.91H60.1
		c0,0-0.779,5.09-1.25,5.39l-1.51,0.34c0,0-0.5-0.11-0.52-0.26c-0.01,0.07-0.01,0.14-0.01,0.21c0,0.11-0.011,0.22-0.031,0.35
		c-0.229,1.45-1.699,4.18-2.989,6.16c0,0-0.312,1.93-0.853,2.47C50.928,40.26,54.6,41.19,54.6,41.19z"/>
	<path opacity="0.5" fill="#223749" d="M42.51,23.59v15.22c0.17,0,0.33,0,0.49,0.01c2.29,0.13,2.62,1.12,2.62,1.12
		c1.25,1.25,2.67,0.96,3.909,0.23c0.111-0.06,0.23-0.13,0.341-0.21c0.2-0.13,0.39-0.27,0.58-0.42c0.18-0.14,0.35-0.29,0.521-0.44
		c0.489-0.43,0.899-0.85,1.209-1.16c0.471-0.47,1.25-1.57,2.051-2.86c0.109-0.18,0.22-0.36,0.34-0.55
		c0.07-0.12,0.14-0.24,0.209-0.37c0.341-0.57,0.66-1.16,0.941-1.73c0.029-0.05,0.049-0.1,0.069-0.15c0.101-0.21,0.2-0.41,0.29-0.61
		c0.029-0.06,0.061-0.11,0.08-0.17c0.14-0.33,0.27-0.66,0.369-0.95c0.051-0.15,0.101-0.29,0.131-0.43c0.061-0.18,0.1-0.35,0.119-0.5
		c0.021-0.13,0.031-0.24,0.031-0.35c0-0.07,0-0.14,0.01-0.21V29c0.05-0.85,0.31-1.92,0.58-2.96c0.35-1.31,0.72-2.59,0.72-3.42
		c0-1.32-0.94-4.45-1.229-4.75c-0.051-0.06-0.08-0.02-0.08,0.13c0,0.85-3.551,2.35-6.021,2.77c-0.17,0.02-0.319,0.04-0.479,0.06
		s-0.32,0.03-0.471,0.04c-0.08,0.01-0.15,0.01-0.22,0.01c-2.31,0-1.931,1.27-2.681,2.02C46.5,23.34,42.76,23.57,42.51,23.59z"/>
	<path fill="#A9AAA9" d="M56.811,29.03c0,0.01,0,0.02,0.01,0.03c0.02,0.15,0.52,0.26,0.52,0.26l1.51-0.34
		c0.471-0.3,1.25-5.39,1.25-5.39c0-1.1-0.83-5.3-1.25-5.72c-0.72-0.72-1.51-0.54-1.83-0.22c-0.01,0.01-0.01,0.02-0.02,0.02
		l-0.109,0.19c0,0,0,0,0,0.01c-0.041,0.08-0.031,0.17,0.02,0.24c0.34,0.5,0.9,4.01,0.9,5.33c0,0-0.181,1.24-0.41,2.6
		c-0.18,1.14-0.41,2.36-0.58,2.96C56.82,29.01,56.811,29.02,56.811,29.03z"/>
	<path fill="none" stroke="#737C67" stroke-width="0.1" stroke-miterlimit="10" d="M53.402,7.955c0,0-1.527,1.295-1.527,1.732
		c0,0.539,1.398,1.031,1.5,1.562c0,0-1.98,4.875-10.865,4.875"/>
	<path fill="#B1B7A5" stroke="#737C67" stroke-width="0.1" stroke-miterlimit="10" d="M42.51,23.59c0.25-0.02,3.99-0.25,4.43-0.69
		c0.75-0.75,0.371-2.02,2.681-2.02c0.069,0,0.72-0.174,0.8-0.184c0,0,0.455-0.266,0.455-0.696c0-0.43-0.805-0.48-1.085-0.45
		c-0.612,0.066-1.591,0.049-2.165-0.3c-0.633-0.385-0.845-1.121-1.135-1.41l-0.928,0.243C45.003,19.313,44.75,20,44.75,20
		c-0.439,0.44-0.545,0.497-0.904,0.497c-0.03,0-1.336,0.074-1.336,0.074"/>
	<path fill="#3D3D3D" d="M57.379,29.025l1.361-0.326c0.43-0.283,1.135-5.09,1.135-5.09c0-1.04-0.748-5.009-1.129-5.406
		c-0.787-0.822-1.832-0.096-1.832-0.096s0.891,3.505,0.891,5.358c0,0-0.617,3.66-0.994,5.258
		C56.772,28.884,57.379,29.025,57.379,29.025z"/>
	<line fill="none" x1="60.46" y1="23.59" x2="60.45" y2="23.59"/>
	<path fill="#3D3D3D" d="M50.15,41.21c0,0,2.217,0.835,2.583,1.201s-1.253,2.959-2.755,2.959C49.256,45.37,49.164,41.21,50.15,41.21
		z"/>
	<path fill="#5B6054" d="M49.87,39.96L53.99,42c0,0,0.373-0.499,0.743-0.989c0,0-2.187-1.477-2.187-1.852
		c0-0.297,1.281-1.8,1.443-2.175c0.127-0.292,0.182-0.984-0.2-1.205c0,0-1.229,1.78-1.61,2.16c-0.3,0.3-0.709,0.72-1.189,1.15
		l-0.02,0.01C50.641,39.4,50.27,39.7,49.87,39.96z"/>
	<path fill="#5B6054" d="M48.58,43.29c0,0,0.141-1.19,0.48-2.1c0.199-0.54,0.459-0.98,0.81-0.98L53.99,42l-4.12-2.04
		c0.2-0.13,0.39-0.27,0.58-0.42c0.18-0.14,0.35-0.29,0.521-0.44l-1.431,1.05c0,0.01-0.011,0.01-0.011,0.02
		c-0.09,0.16-0.329,0.5-0.549,1.03c0,0.01,0,0.01-0.01,0.02C48.76,41.73,48.58,42.42,48.58,43.29z"/>
	<g>
		<path fill="#5B6054" d="M49.411,46.047c-0.455-0.293-0.631-0.803-0.741-1.277c-0.104-0.487-0.112-0.986-0.086-1.478
			c-0.01,0.492,0.017,0.989,0.135,1.466c0.059,0.237,0.142,0.469,0.26,0.682c0.116,0.207,0.275,0.41,0.474,0.516L49.411,46.047z"/>
	</g>
	<polygon fill="#4F292E" points="57.473,37.36 55.719,36.145 55.237,36.848 56.918,38.091 	"/>
	<polygon fill="#4F292E" points="56.716,38.37 54.963,37.154 54.48,37.857 56.163,39.1 	"/>
	<polygon fill="#4F292E" points="55.938,39.402 54.186,38.186 53.703,38.89 55.385,40.132 	"/>
	<path fill="#5B6054" d="M56.16,31.5l0.556,0.25c0.56-0.56,0.624-2.43,0.624-2.43s-0.5-0.11-0.52-0.26
		c-0.01,0.07-0.01,0.14-0.01,0.21c0,0.11-0.011,0.22-0.031,0.35C56.7,30.12,56.471,30.78,56.16,31.5z"/>
	<path fill="#4F292E" d="M48.971,41.22l0.09-0.03l-0.08,0.01C48.98,41.21,48.98,41.21,48.971,41.22z"/>
	<path fill="none" stroke="#5B6054" stroke-width="0.1" stroke-miterlimit="10" d="M45.75,44.58c0.42-0.44,0.75-1.87,0.9-2.56
		c0.039-0.24,0.07-0.39,0.07-0.39"/>
	<path fill="#3D3D3D" d="M42.51,38.81v4.48c1.01,0,2.68-0.23,3.301-0.54c0.35-0.17,0.689-0.53,0.91-0.81l2.25-0.72
		c0.01-0.01,0.01-0.01,0.01-0.02c0.22-0.53,0.459-0.87,0.549-1.03c-1.239,0.73-2.659,1.02-3.909-0.23c0,0-0.33-0.99-2.62-1.12
		C42.84,38.81,42.68,38.81,42.51,38.81z"/>
	<path fill="#737C67" stroke="#5B6054" stroke-width="0.1" stroke-miterlimit="10" d="M42.5,50.25c1.689,0,3.5-1.23,3.63-1.41
		c0.38-0.51,0.25-1.21,0.25-2.22c0-1.37-0.63-2.04-0.63-2.04c-0.561,0.59-3.24,0.79-3.24,0.79"/>
	<g>
		<path fill="#737C67" d="M46.317,45.932c0,0-2.235,0.943-3.808,0.943"/>
		<path fill="#5B6054" d="M46.366,46.047c-0.624,0.232-1.256,0.424-1.898,0.578c-0.643,0.148-1.299,0.266-1.958,0.25
			c0.658-0.027,1.3-0.184,1.925-0.371c0.625-0.191,1.241-0.424,1.834-0.688L46.366,46.047z"/>
	</g>
	<g>
		<path fill="#737C67" d="M46.396,47.415c0,0-1.834,1.023-3.896,1.023"/>
		<path fill="#5B6054" d="M46.457,47.524c-1.244,0.59-2.597,0.942-3.957,0.914c1.354-0.053,2.674-0.492,3.836-1.133L46.457,47.524z"
			/>
	</g>
	<path fill="#838E75" d="M49.87,6.429c0,0-0.446-0.939-1.914-1.554c0,0-1.312-0.312-5.446-0.312L42.5,7.955L49.87,6.429z"/>
	<path fill="#3D3D3D" d="M42.51,5.49c0,0,4.759,0.04,5.446,0.477s1.468,1.062,1.468,1.375s-0.47,0.613-0.676,0.613
		s-1.648-0.499-2.056-0.58c0,0-2.567,0-4.192,0"/>
</g>
<g id="Layer_9" display="none">
	<path display="inline" fill="#2E3523" d="M42.5,3.87c0,0-16.917-1.359-16.917,19.844c0,0-0.323,1.19-1.114,1.982
		s13.978,1.388,18.046,1.388L42.5,3.87z"/>
	<path display="inline" fill="#2E3523" d="M42.5,3.87c0,0,16.946-1.359,16.946,19.844c0,0,0.323,1.19,1.115,1.982
		c0.791,0.792-13.979,1.388-18.047,1.388L42.5,3.87z"/>
	<path display="inline" opacity="0.92" fill="#2B2B2B" stroke="#936703" stroke-width="0.25" stroke-miterlimit="10" d="
		M31.318,29.663c-0.748,0.748-0.907,3.442,1.648,5.355c1.551,1.162,4.284,1.049,6.616-0.852c2.173-1.771,1.729-3.925-0.833-4.892
		C35.938,28.215,32.627,28.354,31.318,29.663z"/>
	
		<line display="inline" fill="#2B2B2B" stroke="#936703" stroke-width="0.25" stroke-miterlimit="10" x1="37.232" y1="28.832" x2="42.5" y2="28.832"/>
	<path display="inline" fill="none" stroke="#936703" stroke-width="0.25" stroke-miterlimit="10" d="M40.974,31.745
		c0,0-0.026-1.328,1.542-1.328"/>
	<path display="inline" fill="none" stroke="#936703" stroke-width="0.25" stroke-miterlimit="10" d="M30.837,31.181
		c0,0-0.393-0.1-1.248-0.1"/>
	<path display="inline" opacity="0.92" fill="#2B2B2B" stroke="#936703" stroke-width="0.25" stroke-miterlimit="10" d="
		M53.697,29.663c0.748,0.748,0.907,3.442-1.648,5.355c-1.551,1.162-4.284,1.049-6.616-0.852c-2.173-1.771-1.729-3.925,0.833-4.892
		C49.077,28.215,52.389,28.354,53.697,29.663z"/>
	
		<line display="inline" fill="#2B2B2B" stroke="#936703" stroke-width="0.25" stroke-miterlimit="10" x1="47.783" y1="28.832" x2="42.516" y2="28.832"/>
	<path display="inline" fill="none" stroke="#936703" stroke-width="0.25" stroke-miterlimit="10" d="M44.042,31.745
		c0,0,0.026-1.328-1.542-1.328"/>
	<path display="inline" fill="none" stroke="#936703" stroke-width="0.25" stroke-miterlimit="10" d="M54.178,31.181
		c0,0,0.393-0.1,1.248-0.1"/>
	<g display="inline">
		<polygon fill="#E0E0E0" points="42.5,17.562 43.308,19.199 45.115,19.462 43.808,20.737 44.116,22.537 42.5,21.687 40.883,22.537 
			41.192,20.737 39.884,19.462 41.691,19.199 		"/>
		<path fill="#5E5E5E" d="M42.5,17.562l0.817,1.633l-0.007-0.005l1.809,0.253l0.04,0.005l-0.029,0.028l-1.301,1.282l0.009-0.026
			l0.318,1.798l0.015,0.08l-0.072-0.038l-1.621-0.841h0.046l-1.621,0.842L40.83,22.61l0.014-0.08l0.318-1.798l0.009,0.026
			l-1.301-1.282l-0.029-0.029l0.04-0.006l1.809-0.252l-0.007,0.005L42.5,17.562z M42.5,17.562l-0.799,1.642l-0.002,0.005l-0.005,0
			l-1.806,0.273l0.011-0.034l1.314,1.268l0.011,0.011l-0.002,0.016l-0.299,1.801l-0.058-0.042l1.611-0.858L42.5,21.63l0.023,0.013
			l1.612,0.859l-0.058,0.042l-0.299-1.801l-0.003-0.016l0.012-0.011l1.314-1.268l0.011,0.034l-1.806-0.272l-0.006,0l-0.002-0.005
			L42.5,17.562z"/>
	</g>
	<g display="inline">
		<polygon fill="#E0E0E0" points="42.499,12.212 43.239,13.712 44.896,13.953 43.697,15.121 43.98,16.77 42.499,15.991 
			41.018,16.77 41.301,15.121 40.103,13.953 41.758,13.712 		"/>
		<path fill="#5E5E5E" d="M42.499,12.212l0.749,1.496l-0.007-0.005l1.657,0.231l0.04,0.005l-0.029,0.028l-1.191,1.175l0.009-0.026
			l0.293,1.647l0.015,0.08l-0.072-0.038l-1.486-0.77h0.046l-1.485,0.771l-0.072,0.038l0.014-0.08l0.292-1.647l0.009,0.026
			l-1.191-1.175l-0.029-0.029l0.04-0.006l1.657-0.23l-0.007,0.005L42.499,12.212z M42.499,12.212l-0.731,1.505l-0.002,0.005
			l-0.005,0l-1.654,0.251l0.011-0.034l1.205,1.161l0.011,0.011l-0.002,0.016l-0.273,1.65L41,16.734l1.476-0.787l0.023-0.013
			l0.023,0.013l1.477,0.788l-0.058,0.042l-0.273-1.65l-0.003-0.016l0.012-0.011l1.205-1.161l0.011,0.034l-1.654-0.25l-0.006,0
			l-0.002-0.005L42.499,12.212z"/>
	</g>
	<g display="inline">
		<polygon fill="#E0E0E0" points="42.499,7.091 43.239,8.591 44.896,8.832 43.697,10 43.98,11.649 42.499,10.87 41.019,11.649 
			41.301,10 40.104,8.832 41.759,8.591 		"/>
		<path fill="#5E5E5E" d="M42.499,7.091l0.749,1.496l-0.007-0.005l1.657,0.231l0.04,0.005l-0.029,0.028l-1.191,1.175l0.009-0.026
			l0.293,1.647l0.015,0.08l-0.072-0.038l-1.486-0.77h0.046l-1.485,0.771l-0.072,0.038l0.014-0.08l0.292-1.647l0.009,0.026
			l-1.191-1.175l-0.029-0.029l0.04-0.006l1.657-0.23L41.75,8.587L42.499,7.091z M42.499,7.091l-0.731,1.504l-0.002,0.005l-0.005,0
			l-1.654,0.251l0.011-0.034l1.205,1.161l0.011,0.011l-0.002,0.016l-0.273,1.65L41,11.613l1.476-0.787l0.023-0.013l0.023,0.013
			l1.477,0.788l-0.058,0.042l-0.273-1.65l-0.003-0.016l0.012-0.011l1.205-1.161l0.011,0.034l-1.654-0.25l-0.006,0L43.23,8.596
			L42.499,7.091z"/>
	</g>
</g>
<g id="Layer_3" display="none">
	<polygon display="inline" fill="#F4F2ED" points="70,37.66 62.62,35.66 58.12,35.05 56.04,34.92 55.41,44.53 44.82,48.03 
		42.5,48.03 42.5,48.04 40.16,48.04 29.57,44.54 28.94,34.92 26.86,35.05 22.36,35.66 14.98,37.66 23.36,28.53 28.94,25.01 
		27.48,9.78 40.16,4.16 42.48,4.17 42.48,4.16 44.82,4.16 57.5,9.78 56.04,25.01 61.62,28.53 	"/>
	<polygon display="inline" fill="#E2E0DC" points="29.083,27.1 30.576,30.275 31.576,42.5 31.576,45.199 29.567,44.535 
		28.937,34.924 22.357,35.665 14.977,37.665 24.833,29 	"/>
	<polygon display="inline" fill="#E2E0DC" points="55.893,27.114 54.396,30.287 53.384,42.511 53.381,45.21 55.391,44.549 
		56.03,34.938 62.609,35.686 69.988,37.693 60.141,29.018 	"/>
	<polyline display="inline" fill="#AC3231" points="29.018,36.149 31.974,36.75 34.167,34.386 36.074,34.995 31.974,39.75 
		29.205,39.008 	"/>
	<path display="inline" fill="#AC3231" d="M32.025,29.308c0,0-2.045,5.407,2.592,6.112c4.636,0.705,5.171-4.859,3.566-6.134
		C36.578,28.012,34.604,26.77,32.025,29.308z"/>
	<path display="inline" fill="#00B8F1" d="M32.725,29.295c0,0-1.911,5.054,2.422,5.713s4.833-4.542,3.333-5.733
		S35.136,26.923,32.725,29.295z"/>
	<path display="inline" fill="#06D0FF" d="M33.375,29.781c0,0-1.489,3.936,1.886,4.449c3.375,0.514,3.765-3.537,2.597-4.465
		C36.689,28.837,35.253,27.933,33.375,29.781z"/>
	<polygon display="inline" fill="#AC3231" points="47.583,19.583 51.726,12 42.5,9.5 33.306,11.917 34.05,19.696 41.157,25.1 
		41.164,37.917 41.157,48.035 43.842,48.035 43.842,37.917 43.842,24.1 36.164,19.25 36.046,13.167 42.499,12.083 48.25,13.083 
		45.784,17.917 41.34,18 40.75,16.583 42.111,15.818 43.66,16.417 44.824,16 42.515,14.583 40.164,14.883 39.002,16.591 
		39.75,19.167 43.66,19.667 	"/>
	<polygon display="inline" fill="#E2E0DC" points="28.937,25.014 30.5,26.1 27.477,9.784 	"/>
	<polyline display="inline" fill="#AC3231" points="55.936,36.149 52.979,36.75 50.787,34.386 48.879,34.995 52.979,39.75 
		55.748,39.008 	"/>
	<path display="inline" fill="#AC3231" d="M52.928,29.308c0,0,2.045,5.407-2.592,6.112c-4.635,0.706-5.171-4.859-3.566-6.133
		C48.375,28.012,50.349,26.77,52.928,29.308z"/>
	<path display="inline" fill="#00B8F1" d="M52.229,29.294c0,0,1.91,5.054-2.423,5.713c-4.333,0.66-4.833-4.541-3.333-5.732
		S49.816,26.922,52.229,29.294z"/>
	<path display="inline" fill="#06D0FF" d="M51.578,29.78c0,0,1.488,3.936-1.887,4.449c-3.375,0.514-3.764-3.536-2.596-4.464
		C48.264,28.837,49.7,27.933,51.578,29.78z"/>
	<polygon display="inline" fill="#E2E0DC" points="55.985,25.014 54.422,26.099 57.444,9.784 	"/>
</g>
<g id="Layer_2" display="none">
	<path display="inline" fill="#2B609A" d="M61.24,27.25v4l-1.11,1.25l-0.09,2.08l-3.07,3.09h-3.91c0,0-1.77,4.55-4.199,3.65
		c-1.86-0.7-3.98-0.86-6.2-0.88l-0.16,0.02l-0.16-0.02c-2.22,0.02-4.34,0.18-6.2,0.88c-2.43,0.9-4.2-3.65-4.2-3.65h-3.91l-3.07-3.09
		l-0.09-2.08l-1.11-1.25v-4l1.54-1.55c0,0,1.02-7.95,1.37-12.03c0.34-4.09,3.79-6.89,6.14-7.75c2.34-0.87,3.07-2.58,9.69-2.58
		s7.35,1.71,9.69,2.58c2.35,0.86,5.8,3.66,6.14,7.75c0.35,4.08,1.37,12.03,1.37,12.03L61.24,27.25z"/>
	<path display="inline" fill="#1B426F" d="M35.706,30.391c-0.283,0.034-0.566,0.034-0.849-0.011
		c-0.209-0.012-0.415-0.059-0.622-0.116c-0.535-0.15-1.037-0.439-1.46-0.901c-0.307-0.323-0.579-0.728-0.807-1.236
		c-0.458-1.018-0.73-2.427-0.73-4.346c0,0,0.011,0,0.021,0.023c0.01,0.011,0.032,0.023,0.066,0.046
		c0.063,0.045,0.185,0.139,0.336,0.254c0.087,0.058,0.198,0.138,0.306,0.219c0.796,0.555,2.169,1.422,3.738,2.058
		c1.199,0.497,2.519,0.855,3.783,0.855C41.516,27.236,38.605,30.148,35.706,30.391z"/>
	<path display="inline" fill="#B8331D" d="M36.075,29.995c-0.26,0.03-0.52,0.03-0.78-0.01c-0.19-0.01-0.38-0.05-0.569-0.1
		c-0.49-0.13-0.951-0.38-1.341-0.78c-0.28-0.28-0.53-0.63-0.739-1.07c-0.42-0.88-0.67-2.1-0.67-3.76c0,0,0.01,0,0.02,0.02
		c0.01,0.01,0.029,0.02,0.061,0.04c0.059,0.04,0.17,0.12,0.309,0.22c0.08,0.05,0.181,0.12,0.281,0.19
		c0.729,0.48,1.989,1.23,3.43,1.78c1.1,0.43,2.31,0.74,3.47,0.74C41.405,27.265,38.735,29.785,36.075,29.995z"/>
	<path display="inline" fill="#012347" d="M33.56,37.67c0.22-0.97,0.8-2,1.59-2.99v5.9C33.07,40.52,33.56,37.67,33.56,37.67z"/>
	<path display="inline" fill="#012347" d="M36.94,32.84c0.46-0.41,0.95-0.79,1.44-1.12v7.79c-0.34,0.12-0.67,0.25-0.98,0.41
		c-0.16,0.08-0.32,0.15-0.46,0.21V32.84z"/>
	<path display="inline" fill="#012347" d="M40.16,30.68c0.5-0.24,0.99-0.42,1.45-0.52v8.61c-0.4,0.05-0.91,0.13-1.45,0.25V30.68z"/>
	<path display="inline" fill="#1B426F" d="M28.954,31.507l2.797-1c0,0-2.13-3.409-1-7.254l-1.797-1.5
		C28.954,21.752,27.907,27.678,28.954,31.507z"/>
	<g display="inline">
		<path fill="#154784" d="M28.954,21.752c1.177,0.832,2.251,1.788,3.406,2.626c1.154,0.809,2.333,1.704,3.657,2.015
			c1.398,0.302,2.796,0.584,4.211,0.776c1.411,0.219,2.835,0.328,4.272,0.424c-1.434,0.126-2.882,0.109-4.32-0.023
			c-1.435-0.15-2.863-0.383-4.267-0.703c-0.749-0.178-1.402-0.536-2.022-0.918c-0.62-0.386-1.202-0.82-1.755-1.285
			C31.012,23.757,30.006,22.726,28.954,21.752z"/>
	</g>
	<path display="inline" fill="#1B426F" d="M30.415,23.119c0.011,0.012,0.034,0.025,0.072,0.051c0.069,0.05,0.202,0.153,0.368,0.28"
		/>
	<g display="inline">
		<path fill="#2B609A" d="M32.545,34.417L32.545,34.417c0-2.583-4.546,0.591-4.546,0.591l-2.876-2.443l3.96-1.058
			C29.083,31.507,32.795,32,32.545,34.417z"/>
		<path fill="#1B426F" d="M32.485,34.892l0.007-0.472c0.007-0.459-0.226-0.919-0.703-0.935c-0.442-0.042-0.894,0.104-1.318,0.267
			c-0.852,0.343-1.654,0.821-2.413,1.34l-0.065,0.044l-0.061-0.05c-0.963-0.809-1.938-1.604-2.883-2.434l-0.165-0.145l0.209-0.054
			l3.969-1.026l0.018-0.004l0.014,0.002c0.831,0.146,1.647,0.401,2.358,0.865c0.347,0.239,0.666,0.536,0.869,0.909
			c0.209,0.37,0.276,0.804,0.224,1.217L32.485,34.892z M32.51,33.91c-0.041-0.24-0.11-0.475-0.24-0.68
			c-0.214-0.352-0.535-0.625-0.882-0.84c-0.699-0.429-1.509-0.676-2.316-0.802l0.032-0.002l-3.951,1.09l0.045-0.198
			c0.972,0.798,1.914,1.632,2.868,2.452l-0.125-0.006c0.782-0.516,1.594-0.984,2.472-1.323c0.439-0.158,0.903-0.307,1.394-0.254
			c0.241,0.023,0.496,0.147,0.628,0.368C32.473,33.774,32.487,33.844,32.51,33.91z"/>
	</g>
	<polygon display="inline" fill="#1B426F" points="27.999,35.008 28.03,37.67 24.96,34.58 24.87,32.5 	"/>
	<path display="inline" fill="#012347" d="M31.859,34.062c0,0-2.823,0.264-3.281,1.875c-0.418,1.469,2.457,1.33,2.66,1.298
		S30.047,36.125,31.859,34.062z"/>
	<g display="inline">
		<path fill="#2B609A" d="M25.851,32.371c0,0,0.42-6.548-0.551-6.67"/>
		<path fill="#1B426F" d="M25.727,32.363c0.086-1.133,0.142-2.272,0.149-3.411c0.002-0.569-0.008-1.139-0.055-1.706
			c-0.023-0.284-0.057-0.566-0.116-0.844c-0.07-0.256-0.12-0.603-0.405-0.702c0.291,0.09,0.355,0.44,0.435,0.695
			c0.07,0.278,0.115,0.561,0.148,0.845c0.067,0.568,0.099,1.139,0.118,1.71c0.035,1.143,0.021,2.285-0.025,3.428L25.727,32.363z"/>
	</g>
	<path display="inline" fill="#012347" d="M23.562,31.281c-0.25-0.204-0.111-3.756-0.111-3.756s0.283-0.51,0.486-0.291
		s0.069,4.206,0,4.172S23.734,31.422,23.562,31.281z"/>
	<path display="inline" fill="#295A91" d="M31.76,34.087c-1.255,0.085-2.432,0.843-2.354,1.921c0.079,1.09,1.221,1.537,2.534,1.662
		c1.361,0.129,2.008-1.589,1.951-2.35C33.781,33.859,31.76,34.087,31.76,34.087z"/>
	<path display="inline" fill="#274572" d="M43.39,30.16v8.61c-0.83-0.09-0.89-0.13-0.89-0.13l0.02-8.62
		C42.83,30.02,43.03,30.06,43.39,30.16z"/>
	<path display="inline" fill="#274572" d="M42.48,30.02l0.02,8.62c0,0-0.06,0.04-0.89,0.13v-8.61
		C41.97,30.06,42.17,30.02,42.48,30.02z"/>
	<path display="inline" fill="#274572" d="M40.16,30.68v8.34c-0.57,0.12-1.19,0.28-1.78,0.49v-7.79
		C38.97,31.31,39.57,30.96,40.16,30.68z"/>
	<path display="inline" fill="#274572" d="M36.94,32.84v7.29c-0.75,0.33-1.34,0.46-1.79,0.45v-5.9
		C35.67,34.04,36.28,33.41,36.94,32.84z"/>
	<path display="inline" fill="none" stroke="#27558A" stroke-width="0.25" stroke-miterlimit="10" d="M42.5,38.645
		c-0.41,0.03-3.109,0.275-5.1,1.275c-4.62,2.32-3.84-2.25-3.84-2.25c0.77-3.42,5.956-7.654,8.917-7.646"/>
	<g display="inline">
		<path fill="#012347" d="M39.409,39.934c0.492-0.204,0.998-0.347,1.51-0.472c0.518-0.126,1.017-0.224,1.593-0.241
			c0.56,0.029,1.068,0.136,1.58,0.272c0.508,0.135,1.012,0.288,1.5,0.502c-0.533-0.011-1.053-0.069-1.57-0.124
			c-0.516-0.045-1.038-0.137-1.523-0.15c-0.469,0.002-1.004,0.084-1.517,0.119C40.462,39.885,39.941,39.933,39.409,39.934z"/>
	</g>
	<path display="inline" fill="#2B609A" d="M49.3,5.55H35.7c0,0-0.18-1.52,0.37-2.07c1.2-1.2,6.43-1.06,6.43-1.06
		s5.23-0.14,6.43,1.06C49.48,4.03,49.3,5.55,49.3,5.55z"/>
	<path display="inline" fill="#012347" d="M48.06,5c-0.72,0.29-5.56,0.08-5.56,0.08S37.66,5.29,36.94,5
		c-0.32-0.13-0.46-0.37-0.23-0.63c0.93-1.04,5.79-1.03,5.79-1.03s4.86-0.01,5.79,1.03C48.51,4.63,48.38,4.87,48.06,5z"/>
	<path display="inline" fill="#1B426F" d="M45.51,27.236c1.265,0,2.585-0.358,3.783-0.855c1.569-0.636,2.942-1.503,3.738-2.058
		c0.108-0.081,0.22-0.162,0.306-0.219c0.152-0.115,0.273-0.208,0.337-0.254c0.034-0.023,0.056-0.035,0.065-0.046
		c0.012-0.023,0.021-0.023,0.021-0.023c0,1.918-0.271,3.328-0.729,4.346c-0.228,0.508-0.501,0.913-0.808,1.236
		c-0.423,0.462-0.926,0.751-1.46,0.901c-0.206,0.058-0.413,0.104-0.622,0.116c-0.283,0.045-0.565,0.045-0.849,0.011
		C46.394,30.148,43.483,27.236,45.51,27.236z"/>
	<path display="inline" fill="#B8331D" d="M45.454,27.265c1.16,0,2.371-0.31,3.471-0.74c1.439-0.55,2.699-1.3,3.43-1.78
		c0.1-0.07,0.201-0.14,0.281-0.19c0.139-0.1,0.25-0.18,0.309-0.22c0.031-0.02,0.051-0.03,0.061-0.04c0.01-0.02,0.02-0.02,0.02-0.02
		c0,1.66-0.25,2.88-0.67,3.76c-0.209,0.44-0.459,0.79-0.74,1.07c-0.389,0.4-0.85,0.65-1.34,0.78c-0.189,0.05-0.379,0.09-0.57,0.1
		c-0.26,0.04-0.52,0.04-0.779,0.01C46.265,29.785,43.595,27.265,45.454,27.265z"/>
	<path display="inline" fill="#012347" d="M51.438,37.67c-0.219-0.97-0.799-2-1.59-2.99v5.9C51.929,40.52,51.438,37.67,51.438,37.67
		z"/>
	<path display="inline" fill="#012347" d="M48.06,32.84c-0.461-0.41-0.951-0.79-1.44-1.12v7.79c0.34,0.12,0.67,0.25,0.979,0.41
		c0.16,0.08,0.32,0.15,0.461,0.21V32.84z"/>
	<path display="inline" fill="#012347" d="M44.839,30.68c-0.5-0.24-0.99-0.42-1.449-0.52v8.61c0.399,0.05,0.909,0.13,1.449,0.25
		V30.68z"/>
	<path display="inline" fill="#1B426F" d="M56.046,31.507l-2.797-1c0,0,2.13-3.409,1-7.254l1.797-1.5
		C56.046,21.752,57.093,27.678,56.046,31.507z"/>
	<g display="inline">
		<path fill="#154784" d="M40.499,27.594c1.437-0.079,2.861-0.192,4.274-0.403c1.41-0.224,2.817-0.465,4.208-0.797
			c1.312-0.341,2.509-1.196,3.645-2.032c1.16-0.831,2.231-1.791,3.42-2.609c-1.042,0.987-2.05,2.014-3.17,2.93
			c-0.558,0.459-1.146,0.885-1.763,1.277c-0.619,0.38-1.272,0.753-2.026,0.909c-1.411,0.289-2.831,0.563-4.271,0.682
			C43.38,27.69,41.932,27.703,40.499,27.594z"/>
	</g>
	<path display="inline" fill="#1B426F" d="M54.144,23.45c0.167-0.127,0.299-0.23,0.369-0.28c0.037-0.026,0.061-0.039,0.071-0.051"/>
	<g display="inline">
		<path fill="#2B609A" d="M52.454,34.417L52.454,34.417c0-2.583,4.546,0.591,4.546,0.591l2.876-2.443l-3.96-1.058
			C55.916,31.507,52.204,32,52.454,34.417z"/>
		<path fill="#1B426F" d="M52.489,33.91c0.022-0.065,0.037-0.136,0.075-0.195c0.133-0.221,0.387-0.345,0.629-0.368
			c0.491-0.053,0.954,0.096,1.394,0.254c0.878,0.339,1.69,0.807,2.472,1.323l-0.125,0.006c0.954-0.819,1.896-1.653,2.868-2.452
			l0.045,0.198l-3.951-1.09l0.031,0.002c-0.808,0.125-1.617,0.373-2.316,0.802c-0.347,0.215-0.668,0.488-0.882,0.84
			C52.6,33.435,52.529,33.669,52.489,33.91z M52.454,34.417c-0.052-0.413,0.015-0.847,0.224-1.217
			c0.204-0.373,0.522-0.67,0.869-0.909c0.711-0.464,1.527-0.719,2.358-0.865l0.015-0.002l0.018,0.004l3.968,1.026l0.21,0.054
			l-0.165,0.145c-0.945,0.83-1.92,1.625-2.884,2.434l-0.06,0.05l-0.065-0.044c-0.759-0.519-1.562-0.997-2.413-1.34
			c-0.424-0.162-0.876-0.309-1.317-0.267c-0.478,0.015-0.711,0.475-0.704,0.935l0.008,0.472L52.454,34.417z"/>
	</g>
	<polygon display="inline" fill="#1B426F" points="57,35.008 56.97,37.67 60.039,34.58 60.129,32.5 	"/>
	<path display="inline" fill="#012347" d="M53.14,34.062c0,0,2.822,0.264,3.281,1.875c0.418,1.469-2.457,1.33-2.66,1.298
		S54.952,36.125,53.14,34.062z"/>
	<g display="inline">
		<path fill="#2B609A" d="M59.147,32.371c0,0-0.42-6.548,0.552-6.67"/>
		<path fill="#1B426F" d="M59.022,32.378c-0.045-1.144-0.059-2.286-0.024-3.428c0.019-0.571,0.051-1.142,0.118-1.71
			c0.033-0.284,0.078-0.567,0.147-0.845c0.08-0.255,0.145-0.604,0.436-0.695c-0.284,0.1-0.334,0.446-0.405,0.702
			c-0.059,0.278-0.093,0.561-0.116,0.844c-0.046,0.567-0.057,1.136-0.055,1.706c0.007,1.138,0.062,2.277,0.149,3.411L59.022,32.378z
			"/>
	</g>
	<path display="inline" fill="#012347" d="M61.437,31.281c0.25-0.204,0.111-3.756,0.111-3.756s-0.283-0.51-0.486-0.291
		s-0.069,4.206,0,4.172S61.265,31.422,61.437,31.281z"/>
	<path display="inline" fill="#295A91" d="M53.239,34.087c1.255,0.085,2.432,0.843,2.354,1.921c-0.079,1.09-1.221,1.537-2.533,1.662
		c-1.361,0.129-2.008-1.589-1.951-2.35C51.218,33.859,53.239,34.087,53.239,34.087z"/>
	<path display="inline" fill="#274572" d="M44.839,30.68v8.34c0.57,0.12,1.189,0.28,1.78,0.49v-7.79
		C46.028,31.31,45.429,30.96,44.839,30.68z"/>
	<path display="inline" fill="#274572" d="M48.06,32.84v7.29c0.75,0.33,1.34,0.46,1.789,0.45v-5.9
		C49.329,34.04,48.72,33.41,48.06,32.84z"/>
	<path display="inline" fill="none" stroke="#27558A" stroke-width="0.25" stroke-miterlimit="10" d="M42.499,38.645
		c0.41,0.03,3.109,0.275,5.1,1.275c4.621,2.32,3.84-2.25,3.84-2.25c-0.77-3.42-5.955-7.654-8.917-7.646"/>
	<g display="inline">
		<path fill="#012347" d="M45.59,39.934c-0.532-0.001-1.053-0.049-1.572-0.095c-0.513-0.035-1.048-0.117-1.517-0.119
			c-0.485,0.014-1.007,0.105-1.523,0.15c-0.518,0.055-1.038,0.113-1.57,0.124c0.488-0.214,0.991-0.367,1.5-0.502
			c0.512-0.135,1.02-0.243,1.58-0.272c0.576,0.017,1.074,0.115,1.593,0.241C44.592,39.587,45.098,39.73,45.59,39.934z"/>
	</g>
</g>
</svg>
