<?xml version="1.0" encoding="utf-8"?>
<!-- Generator: Adobe Illustrator 15.0.0, SVG Export Plug-In . SVG Version: 6.00 Build 0)  -->
<!DOCTYPE svg PUBLIC "-//W3C//DTD SVG 1.1//EN" "http://www.w3.org/Graphics/SVG/1.1/DTD/svg11.dtd">
<svg version="1.1" id="Layer_1" xmlns="http://www.w3.org/2000/svg" xmlns:xlink="http://www.w3.org/1999/xlink" x="0px" y="0px"
	 width="85px" height="85px" viewBox="0 0 85 85" enable-background="new 0 0 85 85" xml:space="preserve">
<path fill="#F2B6E0" d="M29.593,20.696c0,0-1.438-8.813,0-10.706c4.563-6.005,21.25-6.005,25.813,0c1.438,1.893,0,10.706,0,10.706
	l-0.739,5H30.334L29.593,20.696z"/>
<path fill="#E5B55E" d="M55.39,56.47l-12.877,3.24l-12.919-3.25v-23c5.328-0.21,10.675-2.73,6.951-2.73
	c-2.324,0-4.748-0.31-6.951-0.74V25.1h25.757v4.67c-2.442,0.53-5.268,0.96-8.012,0.96c-3.965,0,2.362,2.85,8.012,2.74v22.99
	L55.39,56.47z"/>
<path fill="#EABB78" d="M31.97,27.76c-0.01-0.02-0.02-0.02-0.02-0.02c0,1.66,0.25,2.88,0.67,3.76c0.21,0.44,0.46,0.79,0.74,1.07
	c0.39,0.4,0.85,0.65,1.34,0.78c0.19,0.05,0.38,0.09,0.57,0.1c0.26,0.04,0.52,0.04,0.78,0.01v23l-6.43,3.24l-0.03,0.01V25.1h6.46
	v4.89c-1.44-0.55-2.7-1.3-3.43-1.78c-0.1-0.07-0.2-0.14-0.28-0.19c-0.14-0.1-0.25-0.18-0.31-0.22C32,27.78,31.98,27.77,31.97,27.76z
	"/>
<polygon fill="#D6A456" points="55.36,25.1 55.36,59.71 48.93,56.47 48.91,56.46 48.91,25.1 "/>
<rect x="29.593" y="20.696" fill="#A3A3A3" width="25.813" height="4.408"/>
<rect x="29.593" y="20.696" fill="#A0A0A0" width="6.457" height="4.404"/>
<rect x="48.904" y="20.696" fill="#A0A0A0" width="6.456" height="4.404"/>
<polygon fill="#F9F7E1" points="55.41,59.71 42.515,77.25 29.62,59.7 36.05,56.46 42.512,59.71 48.93,56.47 48.95,56.46 
	55.36,59.68 55.38,59.7 "/>
<polygon fill="#EDE9DF" points="55.41,59.71 45.21,75.36 43.66,75.36 48.95,56.46 "/>
<polygon fill="#FFFBEE" points="41.34,75.36 39.79,75.36 29.59,59.71 36.05,56.46 "/>
<polygon fill="#4D5051" points="45.21,75.36 42.5,79.51 39.79,75.36 "/>
<path fill="#FFFFFF" d="M52.49,27.74c0,4.31-1.721,5.67-3.58,5.73c-2.82,0.11-5.98-2.74-4-2.74c1.37,0,2.78-0.43,4-0.96
	C50.95,28.9,52.49,27.74,52.49,27.74z"/>
<line opacity="0.11" fill="none" stroke="#000000" stroke-width="0.25" stroke-miterlimit="10" x1="29.593" y1="22.203" x2="55.406" y2="22.203"/>
<line opacity="0.11" fill="none" stroke="#000000" stroke-width="0.25" stroke-miterlimit="10" x1="29.593" y1="23.714" x2="55.406" y2="23.714"/>
<path fill="#FFFFFF" d="M36.05,33.46c-0.26,0.03-0.52,0.03-0.78-0.01c-0.19-0.01-0.38-0.05-0.57-0.1c-0.49-0.13-0.95-0.38-1.34-0.78
	c-0.28-0.28-0.53-0.63-0.74-1.07c-0.42-0.88-0.67-2.1-0.67-3.76c0,0,0.01,0,0.02,0.02c0.01,0.01,0.03,0.02,0.06,0.04
	c0.06,0.04,0.17,0.12,0.31,0.22c0.08,0.05,0.18,0.12,0.28,0.19c0.73,0.48,1.99,1.23,3.43,1.78c1.1,0.43,2.31,0.74,3.47,0.74
	C41.38,30.73,38.71,33.25,36.05,33.46z"/>
<path fill="#2E352D" d="M28.113,20.013c-0.75,5.054-1.125,6.892-1.625,7.785s1.625,0,1.625,0l1.375-7.785"/>
<path fill="#2E352D" d="M56.735,20.009c0.75,5.054,1.125,6.892,1.625,7.785s-1.625,0-1.625,0l-1.375-7.785"/>
<path fill="#485646" d="M42.48,2l0.04,19.7c0,0-17.41-0.19-16.03-1.38C28.51,18.56,26.09,2,42.48,2z"/>
<path fill="#485646" d="M42.52,21.7L42.5,2c16.38,0,13.97,16.56,15.99,18.32C59.87,21.51,42.52,21.7,42.52,21.7z"/>
</svg>
